<svg version="1.1" xmlns="http://www.w3.org/2000/svg" viewBox="0 0 1100 571.198113207547" width="1100" height="571.198113207547">
  <!-- svg-source:excalidraw -->
  
  <defs>
    <style>
      @font-face {
        font-family: "Virgil";
        src: url("https://excalidraw.com/Virgil.woff2");
      }
      @font-face {
        font-family: "Cascadia";
        src: url("https://excalidraw.com/Cascadia.woff2");
      }
    </style>
  </defs>
  <rect x="0" y="0" width="1100" height="571.198113207547" fill="#ffffff"></rect><g stroke-linecap="round" transform="translate(687 10) rotate(0 201.5 216)"><path d="M0.45 -0.39 C138.48 0.51, 276.42 -0.48, 402.86 0.85 M402.03 -0.14 C401.02 144.86, 400.17 290.59, 403.16 432.81 M402.8 432.93 C301.31 431.95, 201.8 431.87, 0.17 431.8 M0.41 432.94 C1.21 258.82, -0.22 86.99, -0.38 -0.82" stroke="#000000" stroke-width="1.5" fill="none" stroke-dasharray="1.5 7"></path></g><g transform="translate(797 35) rotate(0 88 13)"><text x="0" y="18" font-family="Virgil, Segoe UI Emoji" font-size="20px" fill="#000000" text-anchor="start" style="white-space: pre;" direction="ltr">Router Component</text></g><g stroke-linecap="round" transform="translate(719 113) rotate(0 170 53)"><path d="M0 0 C0 0, 0 0, 0 0 M0 0 C0 0, 0 0, 0 0 M-0.56 7.04 C0.73 4.58, 2.68 2.95, 4.46 0.1 M-0.22 6.62 C1.94 3.94, 3.74 2.19, 4.92 0 M-0.82 13.41 C2.88 10.33, 5.8 6.43, 11.69 -1.5 M-0.42 12.48 C2.03 9.45, 4.5 6.06, 11.11 -0.12 M0.52 16.74 C2.35 13.67, 5.83 10.48, 15.25 -0.84 M-0.51 19.05 C5.28 11.53, 10.13 5.3, 15.47 0.74 M-1.36 25.72 C8.56 13.35, 15.48 6.17, 22.14 -0.74 M0.15 24.16 C8.44 16.24, 14.69 7.58, 21.45 0.52 M-0.64 29.14 C6.27 23.93, 10.83 17.53, 28.06 -1.15 M0.21 31.39 C6.11 25, 10.71 18.1, 25.78 1.08 M-1.86 36.09 C11.6 22.15, 20.45 9.56, 30.27 -1.5 M0.7 37.39 C10.59 26.37, 20.64 13.2, 32.18 0.68 M-0.36 40.82 C8.96 29.38, 19.04 18.75, 36.4 -0.8 M0.15 43.21 C12.97 28.67, 25.16 14.17, 37.3 0.8 M1.55 47.26 C15.29 31.28, 31.13 12.4, 43.37 -1.42 M-0.31 49.37 C9.04 37.38, 18.53 26.15, 43.14 -0.97 M0.86 53.99 C17.59 35.99, 34.21 16.74, 45.97 -0.77 M0.77 55.46 C15 36, 32.16 18.59, 46.89 -0.06 M-1.59 62.52 C19.46 40.98, 37.5 18.1, 51.8 0.86 M-0.93 61.12 C13.37 46.35, 25.14 32.98, 53.34 -0.06 M1.23 66.26 C16.58 50.24, 30.09 30.98, 57.82 0.62 M0.17 67.52 C20.4 45.03, 39.13 20.91, 58.73 0.2 M-1.71 71.03 C23.41 47.43, 46.33 19.85, 65.31 1.3 M0.77 72.61 C15.3 57.33, 29.57 40.48, 63.12 -0.52 M0.31 79.58 C27.37 48.94, 54.9 17.38, 68.39 -0.37 M-0.24 80.19 C20.3 57, 40.56 35.35, 68.29 1.01 M2.1 84.56 C15.76 64.22, 32.43 44.13, 73.01 -1.51 M0.02 85.51 C19.06 62.47, 39.3 40.46, 74.11 -0.61 M-0.93 92.8 C22.12 67.3, 43.29 42.39, 77.48 -0.82 M0.25 92.22 C21.94 67.57, 41.89 43.94, 80.38 -0.56 M1.52 98.29 C22.43 73.65, 44.47 48.09, 83.42 1.66 M0.71 97.91 C30.53 62.39, 59.54 29.13, 85.27 -0.89 M-1.5 102.65 C25.45 71.75, 53.34 39.29, 88.3 0.81 M0.37 103.29 C29.68 68.13, 60.63 33.48, 89.11 0.29 M3.5 109.46 C31.76 75.29, 57.59 42.9, 96.4 -1.35 M2 107.06 C30.31 74, 60.11 40.43, 94.86 -0.24 M5.54 108.93 C36.31 75.09, 62.91 41.82, 99.38 0.66 M6.67 107.24 C39.92 72.46, 69.48 35.31, 99.9 0.02 M13.01 106.96 C46.23 68.61, 83.27 28.45, 107.2 -0.06 M12.94 106.89 C41.95 74.34, 69.57 42.17, 106.46 0.16 M17.32 108.62 C48.79 71.89, 82.17 35.98, 112.68 1.53 M17.88 108.15 C41.67 79.05, 67.78 51.18, 111.48 0.78 M23.96 106.87 C54.92 72.5, 89.17 30.92, 117.79 -0.62 M23.51 107.62 C47.44 78.03, 72.01 50.85, 116.32 -0.44 M29.02 106.85 C55.67 78.13, 79.77 45.01, 121.5 0.82 M28.69 107.29 C54.22 77.65, 82.4 46.14, 121.91 0.41 M34.16 106.1 C64.28 70.85, 95.1 37.01, 127.48 -0.84 M33.49 107.34 C60.68 76.49, 86.8 44.43, 125.94 0.63 M39.13 106.83 C66.97 77.4, 91.49 45.38, 134.52 -1.43 M39.06 107.1 C69.51 70.16, 101.91 33.88, 132.54 0.46 M44.79 108.18 C71.4 80.61, 96.41 50.71, 136.98 -1.59 M44 107.83 C67.63 78.88, 91.24 52.06, 138.18 0.01 M49.54 106.42 C73.04 82.08, 92.23 55.36, 143.82 1.43 M50.25 107.7 C78.78 71.71, 111.18 36.69, 144.05 0.13 M56.41 107.27 C82.84 76.22, 106.33 47.16, 147.05 2.08 M55.46 106.56 C73.8 85.87, 92.06 64.12, 147.88 1.26 M61.49 106.09 C93.21 68.06, 128.93 28.97, 152.81 -1.31 M60.85 106.91 C93.14 71.34, 124.82 34.55, 154.41 0.32 M64.96 108.16 C86.54 84.16, 106.5 58.34, 157.8 1.77 M65.61 106.68 C98.89 72.19, 129.94 34.91, 159.18 -0.38 M71.6 108.93 C95.73 78.67, 118.73 51.86, 164.32 -1.75 M70.75 108.22 C89.42 85.01, 107.49 63.33, 164.94 -0.35 M77.76 106.25 C100.75 80.29, 127.65 50.13, 168.74 -0.29 M75.49 107.04 C99.12 82.03, 121.25 55.9, 169.53 0.03 M79.87 108.65 C115.99 68, 153.25 23.94, 176.53 -1.36 M81.14 106.82 C112.68 71.16, 145.38 33.99, 174.24 0.37 M85.47 107.57 C118.08 71.22, 145.9 35.93, 178.73 0.73 M87.46 108.17 C111.1 79.33, 134.39 51.88, 179.7 1.12 M93.68 109.62 C125.38 69.32, 162.64 26.03, 186.99 1.04 M92.55 107.58 C123.39 72.16, 154.14 37.15, 186.23 0.47 M98.18 108.79 C118.88 83.77, 138.68 56.74, 190.03 0.32 M97.21 108.28 C126.75 74.21, 154.86 42.07, 189.76 -0.8 M103.76 106.79 C138.71 65.81, 174.28 23.54, 196.65 1.21 M102.81 107.07 C131.45 72.88, 160.21 38.51, 196.15 -0.41 M109.3 109.19 C140.44 69.23, 173.83 29.09, 200.26 0.56 M107.7 107.27 C133.25 78.13, 158.53 50.36, 201.11 0.26 M112.26 105.77 C139.75 76.92, 167.33 43.17, 205.82 1.57 M113.05 107.54 C133.43 83.11, 154.98 59.69, 206.54 -0.92 M119 107.43 C138.26 84.14, 156.64 63.72, 210.41 -1.83 M118.59 107.51 C136.9 87.05, 156.26 64.9, 212.45 0 M124.65 106.77 C154.45 71.78, 182.17 37.53, 218.18 -0.85 M123.74 106.92 C153.9 70.95, 186.48 34.79, 217.27 -0.03 M128.78 106.54 C147.92 86.44, 166.79 65.41, 220.86 0.51 M128.79 108.75 C159.57 73.03, 189.83 40.24, 221.8 -0.22 M133.82 108.64 C154.94 83.21, 177.41 57.52, 228.79 1.61 M134.63 106.83 C164.93 74.48, 192.97 40.04, 227.52 -1.03 M137.53 106.42 C167.51 73.52, 199.33 40.09, 231.36 1.54 M138.58 108.72 C160.02 83.83, 179.26 60.13, 232.49 0.68 M144.01 108.85 C170.42 76.59, 198.38 49.46, 239.43 -0.01 M144.81 106.59 C180.93 66.92, 216.18 27.7, 239.09 1.26 M148.2 108.86 C174.08 80.46, 198.78 52.66, 245.03 1.85 M150.19 108.08 C172.15 81.64, 197.63 54.05, 243.16 -0.57 M154.86 107.5 C184.52 74.25, 209.39 42.62, 249.22 1.68 M154.67 107.19 C185.18 72.87, 217.04 39.05, 249.12 -0.6 M159.09 106.27 C184.03 82.65, 202.89 58.96, 256.37 0.68 M161.17 107.17 C193.15 69.43, 226.82 30.75, 253.76 0.47 M165.34 107.3 C184.12 84.18, 205.87 62.27, 258.7 -1.02 M165.91 107.33 C196.6 74.32, 225.86 39.97, 260.05 -0.06 M171.89 109.68 C207.07 65.66, 244.22 24.47, 263.25 -0.14 M170.37 108.01 C192.4 83, 213.25 58.79, 265.56 -0.06 M177.85 105.61 C203.12 76.36, 233.26 44.01, 268.42 2.04 M177.56 107.38 C202.53 77.68, 230.02 47.26, 270.31 0.34 M183.66 108.75 C206.16 81.11, 229.88 52.89, 274.92 -0.13 M181.97 108.34 C213.61 73.01, 243.76 38.63, 275.14 -0.37 M186.12 106.39 C221.32 70, 259.23 26.93, 282.32 -0.36 M187.92 107.39 C216.36 73.23, 246.71 37.53, 281.62 -0.24 M190.84 107.77 C214.73 85.06, 232.81 59.82, 288.01 -0.21 M193.45 107.54 C220.24 76.22, 246.98 46.51, 286.39 -0.95 M199.28 108.25 C232.29 67.65, 265.47 31.35, 291.71 -0.81 M198.66 107.12 C225.86 74.17, 255.92 41.07, 291.05 1.04 M201.23 109.63 C224.41 81.5, 248.16 55.42, 298.5 1.36 M203.62 106.72 C231.34 73.59, 260.47 41.53, 296.52 -0.61 M209.83 108.39 C239.71 71.19, 271.97 34.89, 303.28 -1.26 M208.73 108 C234.26 77.56, 258.83 48, 302.95 0.72 M214.03 107.89 C233.94 85.39, 251.74 64.23, 305.78 0.91 M214.59 108.65 C248.29 67.28, 284.44 26.91, 308.04 -0.49 M217.64 106.66 C248.55 77.14, 273.64 45.15, 311.08 -1.08 M220.38 107.16 C240.24 81.83, 263.17 57.1, 312.98 1 M223.79 106.68 C256.84 73.09, 289.23 36.42, 316.59 1.43 M223.77 107.81 C246.71 84.37, 265.62 61.79, 318.78 -0.01 M229.95 105.55 C263.43 70.94, 297.25 28.62, 324.55 -0.96 M229.21 107.42 C261.95 69.28, 295.85 32.94, 324.15 -0.2 M236.44 108.8 C270.05 68.91, 301.76 28.73, 329.05 0.49 M235.9 108.34 C268.05 70.98, 300.71 33.33, 327.88 -0.93 M240.74 106.89 C258.93 86.83, 280 62.62, 332.51 0.98 M239.44 108.01 C275.01 66.87, 309.32 26.74, 334.74 0.7 M245.31 107.66 C281.63 68.47, 312.63 29.43, 340.67 -1.67 M245.03 108.09 C269.7 82.49, 293.61 55.28, 339.8 -1.32 M249.32 108.89 C270.01 84.2, 290.77 60.27, 341.16 3.57 M250.59 107.62 C269.5 86.66, 288.95 64.11, 342.39 3.26 M255.06 107.28 C289.99 73.8, 318.24 35.89, 340.44 6.85 M256.52 106.6 C286.26 71.14, 317.48 36.96, 342.43 9.51 M260.4 106.67 C286.49 76.28, 311.82 48.75, 343.52 13.49 M261.52 108.88 C290.94 74.14, 318.98 41, 343.48 13.98 M265.78 106.33 C287 82.26, 308.23 61.02, 341.86 21.48 M267.04 107.07 C288.83 81.88, 311.8 55.38, 342.09 20.83 M270.73 109.18 C298.25 79.3, 323.75 48.32, 343.03 26.72 M271.07 107.36 C288.24 87.88, 305.52 69.07, 342.76 25.71 M276.88 106.08 C303.16 77.95, 326.03 49.89, 343.18 31.29 M278.58 108.41 C293.32 88.94, 309.99 70.08, 341.81 32.63 M284.43 108.03 C301.04 86.41, 321.07 62.25, 341.37 40.42 M283.37 108.29 C301.56 86.15, 318.18 65.7, 343.13 39.55 M287.19 106.46 C305.96 88.12, 319.32 70.73, 343.39 43.01 M288.44 107.23 C307.75 84.41, 327.47 60.03, 343.29 45.58 M293.01 109.44 C310.47 87.03, 329.89 69.19, 341.52 52.13 M293.87 108.61 C308.53 90.54, 323.52 71.36, 342.75 52.02 M298.88 105.98 C315.98 90.49, 329.74 74.03, 340.87 57.99 M299.22 107.79 C314.34 88.49, 332.47 69.55, 343.54 56.06 M303.33 106.25 C313.91 94.3, 324.05 81.94, 343.89 64.24 M303.35 106.96 C313.4 97.09, 321.82 85.63, 343.15 63.59 M309.51 105.81 C319.87 93.56, 335.11 79.48, 340.71 68.94 M308.85 108.06 C321.47 93.06, 333.19 81.26, 342.24 68.89 M313.64 105.93 C323.66 100.75, 330.26 90.4, 340.92 77.04 M313.88 107.64 C321.01 101.05, 326.7 95.56, 341.81 75.67 M320.03 105.74 C326.14 102.41, 328.06 97.62, 341.35 80.95 M320.57 107.71 C329.42 97.22, 337.88 87.41, 342.34 82.3 M325.57 106.57 C331.22 101.18, 334.11 96.86, 344.41 85.45 M324.86 108.65 C330.62 101.11, 336.39 96.26, 343.53 87.35 M330.74 108.07 C336.22 102.91, 338.85 96.9, 342.61 92.18 M330.9 107.99 C333.55 103.41, 336.01 100.36, 342.18 94.42 M335.92 108.28 C336.57 105.11, 340.24 104.13, 341.59 99.93 M335.35 107.67 C337.9 104.43, 341.03 101.83, 342.02 100.14" stroke="#228be6" stroke-width="0.5" fill="none"></path><path d="M0.9 0.06 C112.16 -0.52, 224.54 -0.69, 339.39 -0.25 M-0.54 0.52 C113.19 2.11, 225.14 2.47, 339.76 -0.48 M340.77 -1.99 C342.34 30.43, 339.15 63.88, 340.08 106.64 M340.32 0.62 C340.02 27.08, 340.48 55.61, 339.16 106.63 M339.12 106.19 C266.85 104.39, 192.7 106.34, 0.66 106.32 M340.65 106.18 C256.52 103.97, 172.25 104.98, 0.5 106.47 M-1.59 105.63 C-0.24 81.23, -1.21 51.93, 0.02 -1.66 M0.85 105.19 C-0.17 69.57, 0.29 31.45, -0.75 0.15" stroke="#000000" stroke-width="1" fill="none"></path></g><g transform="translate(843 153) rotate(0 46 13)"><text x="46" y="18" font-family="Virgil, Segoe UI Emoji" font-size="20px" fill="#000000" text-anchor="middle" style="white-space: pre;" direction="ltr">Receiver 1</text></g><g stroke-linecap="round" transform="translate(722 271) rotate(0 170 53)"><path d="M0 0 C0 0, 0 0, 0 0 M0 0 C0 0, 0 0, 0 0 M-0.41 6.76 C0.65 5.03, 1.64 3.63, 5.48 -0.31 M-0.14 6.28 C1.7 4.35, 3.55 2.19, 4.68 0.16 M0.93 13.49 C2.16 7.47, 7.62 4.89, 9.65 -0.49 M-0.51 12.67 C4.09 8.27, 7.61 3.37, 10.09 0.38 M-2.01 18.76 C4.26 13.49, 6.47 11.3, 16 0.55 M0.61 17.89 C4.73 13.96, 7.98 8.36, 15.46 0.54 M1.12 24.41 C9.03 17.07, 13.76 6.5, 22.44 -0.04 M-0.66 23.1 C7.83 15.8, 15.29 6.6, 22.02 0.68 M1.25 29.71 C7.75 24.99, 13.65 17.33, 24.92 -0.34 M0.22 30.57 C10.45 18.98, 20.98 6.91, 26.06 0.03 M-0.51 38.46 C9.8 26.2, 20.15 17.59, 30.94 1.61 M0.66 36.64 C6.38 27.78, 13.58 19.05, 31.19 -0.74 M-0.38 43.46 C8.63 30.85, 20.9 19.28, 36.27 -0.49 M-0.34 43.2 C10.41 31.35, 20.23 19.78, 35.92 -0.21 M0.35 50.48 C12.44 35.23, 21.84 23.07, 44.49 -1.49 M0.76 49.14 C11.21 36.82, 22.24 24.05, 41.71 0.83 M2.19 54.71 C18.48 33.8, 33.33 16.95, 47.96 -1.01 M-0.55 54.15 C13.6 37.9, 28.25 20.86, 46.64 0.58 M0.44 60.59 C16.86 38.66, 36.26 18.23, 51.32 0.24 M0.83 61.88 C16.88 42.57, 31.7 24.18, 53.52 -0.69 M0.03 66.25 C16.53 45.45, 35.74 24.79, 56.51 0.33 M-0.9 67.84 C18.01 46.88, 34.72 26.32, 57.5 0.49 M-0.2 71.54 C23.79 48.97, 41.35 22.5, 62.26 -0.27 M0.41 72.69 C23.27 46.56, 47.88 19.48, 64.23 -0.06 M0.8 78.03 C22.34 54.52, 41.26 31.96, 69.09 1.16 M-0.19 79.74 C23.1 52.86, 47.38 26.18, 69.46 0.91 M1.09 85.47 C18.66 61.76, 41.17 40.19, 74.8 1.28 M0.7 84.7 C25.97 56.59, 52.83 24.59, 75.17 -0.74 M0.8 91.6 C20.43 65.94, 41.34 44.06, 79.48 -1.52 M0.47 90.91 C23.01 65.64, 44.28 38.48, 79.19 0.54 M0.93 96.61 C22.5 70.89, 49.85 41.27, 85.02 0.59 M-0.04 97.13 C27.22 64.75, 55.25 33.31, 85.33 -0.86 M-0.36 103.15 C27.01 74.17, 51.27 42.25, 88.09 0.67 M0.35 102.96 C26.77 74, 51.07 44.14, 91.02 -0.6 M2.51 106.07 C32.08 69.09, 65.12 33.06, 95.65 0.71 M2.06 107.96 C28.41 79.93, 53.42 50.59, 95.4 -1.26 M6.09 108.69 C29.83 78.33, 53.34 51.97, 101.95 -0.54 M6.93 107.27 C30.06 82.36, 50.59 56.42, 100.98 0.81 M14.27 107.31 C41.1 71.27, 74.72 37.07, 108.04 0.08 M13.19 107.49 C39.67 77.03, 64.8 47.1, 105.74 0.56 M18.39 106.18 C37.18 86.08, 54.95 64.13, 110.73 1.99 M18.22 107.08 C51.55 67.99, 86.87 28.36, 110.79 -0.58 M24.84 105.76 C56.41 71.56, 87.67 34.9, 117.49 1.27 M22.78 107.92 C43.88 83.54, 64.45 58.45, 115.78 1.14 M28.05 106.46 C62.29 73.34, 93.06 34.82, 122.69 -1.26 M28.59 108.48 C52.4 79.43, 76.04 52.07, 121.86 -0.82 M33.99 108.41 C52.77 84.84, 69.53 63.76, 127.91 -0.05 M34.49 106.95 C58.97 79.71, 85.15 49.99, 126.56 0.09 M37.18 107.21 C62.59 82.51, 84.43 56.04, 132.76 -0.39 M38.04 108.33 C73.94 67.45, 110.62 24.65, 133.28 -0.64 M44.15 105.65 C75.39 71.33, 108.64 33.97, 135.88 1.43 M43.66 107.59 C74.99 71.87, 104.24 36.58, 136.87 0.59 M50.5 109.49 C73.78 78.82, 96.25 51.66, 142.46 1.82 M50.26 108.8 C83.85 68.66, 120.03 26.82, 143.83 0.54 M56.35 107.21 C87.01 72.01, 117.66 37.46, 149.23 1.65 M55.33 108.19 C76.24 83.04, 97.05 56.98, 147.84 0.36 M59.35 109.75 C89.84 73.71, 117.5 42.29, 151.95 -1.99 M60.62 107.36 C95.54 66.29, 131.22 24.58, 153.97 0.61 M66.23 106.23 C94.75 72.44, 122.62 37.79, 158.44 -0.07 M66.21 108.37 C98.24 69.41, 131.65 30.12, 158.27 0.47 M69.71 107.78 C95.35 77.67, 120.84 50.97, 164.02 0.17 M70.18 106.84 C97.69 76.54, 125.2 43.88, 163.87 0.78 M76.09 107.19 C95.8 82.62, 118.06 59.75, 168.6 -1.05 M76.7 107.09 C95.6 84.5, 114.24 63.41, 168.66 -0.74 M82.17 106.77 C99.91 86.62, 119.8 63.98, 176.08 -0.32 M81.69 107.32 C111.46 71.93, 140.56 37.28, 175.36 -0.45 M86.83 105.98 C116.52 70.84, 150.06 34.88, 179.43 0.76 M86.91 106.63 C105.71 85.69, 124.59 64.3, 179.2 0.41 M91.95 109.29 C122.5 72.09, 153.08 40.96, 184.15 -0.72 M91.59 108.24 C112.51 83.43, 134.4 58.33, 185.98 0.76 M97.99 105.84 C128.38 74.58, 154.99 39.58, 189.28 -1.19 M96.6 106.55 C126.3 72.84, 157.13 38.97, 189.76 0.9 M100.9 109.27 C123.76 83.26, 141.85 59.35, 194.9 1.1 M102 108.33 C128.08 76.96, 155.23 48.25, 196.95 -0.44 M107.72 105.4 C144.49 66.29, 179.85 28.26, 203.12 1.9 M107.25 107.75 C132.12 80.42, 156.23 52.99, 201.91 1.05 M113.49 108.02 C134.3 82.03, 161.37 54.33, 205.6 -1.36 M112.74 107.63 C141.6 74.77, 167.78 43.15, 207.16 0.39 M116.15 107.4 C147.13 72.57, 180.85 39.44, 212.54 -1.78 M117.35 107.2 C140.74 82.92, 160.78 58.86, 212.9 0.44 M124.8 106.23 C155.3 68.73, 189 30.07, 216.18 0.76 M123.3 107.52 C142.52 84.9, 163.13 62.75, 217.21 -0.98 M128 107.71 C159.48 74.86, 188.81 39.73, 223.77 -0.66 M129.07 108.89 C165 65.72, 202.18 23.72, 221.65 0.01 M132.58 107.96 C155.47 82.22, 175.95 58.21, 229.15 -0.28 M134.87 106.66 C161.7 75.97, 190.83 43.63, 227.39 0.53 M140.65 107.83 C164.9 78.5, 193.8 47.67, 233.66 0.18 M140.27 108.4 C163.83 80.74, 187.62 52.9, 232.8 0 M145.15 108.63 C176.96 72.16, 206.76 38.49, 237.03 -0.1 M144.32 107.03 C179.67 69.16, 215.88 27.78, 239 0.07 M150.76 107.89 C178.67 73.81, 209.41 36.86, 245.66 -0.95 M149.17 107.9 C171.39 84.4, 190.74 59.91, 244.66 -0.05 M157.49 107.08 C183.65 75.23, 210.39 46.59, 248.9 -1.22 M156.21 107.94 C189.86 68.75, 223.23 31.29, 249.01 -0.17 M161.61 107.39 C187.56 73.84, 219.05 40.59, 253.88 1.65 M159.68 108.81 C182.39 81.79, 205.75 55.53, 255.22 0.71 M167.2 105.47 C193.56 72.83, 222.55 42.39, 258.52 -0.52 M166.8 107.99 C197.47 71.75, 229.2 35.65, 260.11 -0.42 M171.11 109.19 C197.27 77.12, 220.84 47.42, 267.04 1.03 M171.39 107.92 C190.93 85.62, 209.78 63.58, 264.18 0.47 M178.49 109.37 C210.67 66.92, 247.55 26.92, 270.93 -0.23 M176.02 107.11 C205.51 76.29, 231.67 44.63, 269.32 -0.34 M183.79 107.54 C202.2 81.2, 226.71 56.29, 276.48 1.63 M181.59 107.3 C214.23 72.69, 246.2 36.22, 274.9 0.71 M186.22 107.71 C210.65 83.88, 227.81 62.46, 281.78 0.76 M187.49 106.54 C220.93 70.11, 254.74 29.51, 281.37 -0.3 M190.81 108.08 C223.67 69.1, 259.32 33.41, 288.18 -0.74 M193.23 108.34 C227.23 68.49, 260.07 28.86, 286.44 0.23 M199.85 108.81 C231.84 71.39, 264.06 34.16, 289.35 -1.05 M198.53 106.81 C217.5 85.83, 237.61 62.71, 290.67 0.65 M201.95 107.79 C237.9 66.05, 271.78 25.74, 298.73 1.1 M202.98 107.75 C238.3 68.43, 271 29.13, 297.57 -0.87 M207.48 108.35 C232.46 83.33, 256.82 55.9, 302.56 -1.79 M208.13 107.8 C228.53 83.24, 249.18 59.45, 301.29 0.8 M213.62 107.05 C232.29 86.73, 252.2 63.47, 307.35 1.72 M213.17 107.55 C249.38 69.82, 281.69 29.95, 306.7 -1.16 M219.83 105.39 C251.48 67.53, 285.63 31.69, 312.93 1.79 M218.99 106.67 C248.14 72.29, 277.47 39.35, 313.03 -0.3 M224.86 109.61 C258.98 68.35, 290.82 29.96, 319.89 -0.95 M223.84 107.05 C249.5 77.09, 275.5 48.78, 317.98 0.1 M230.25 106.37 C256.5 76.31, 285.21 43.13, 322.63 0.32 M229.47 107.91 C263.9 68.71, 297.56 29.16, 323.35 0.26 M233.32 106.59 C256.42 80.72, 279.39 56.44, 328.81 -1.6 M234.71 106.91 C271.44 65.01, 306.62 23.68, 329.2 -1.05 M242.04 109.86 C262.41 81.56, 286.71 54.21, 332.43 -0.21 M240.98 108.07 C271.06 72.31, 302.65 35.41, 333.41 0.68 M247.29 108.49 C275.77 73.27, 301.31 41.22, 341.22 0.45 M245.18 107.08 C274.78 74.48, 301.27 43, 339.87 -1.24 M251.13 107.52 C283.51 69.23, 316.67 27.68, 343.78 3.83 M250.58 108.76 C283.74 70.22, 317.67 33.44, 342.08 2.74 M257.67 109.17 C283.08 77.6, 309.14 43.75, 342.96 10.33 M256.34 106.83 C287.01 74.46, 315.55 41.31, 341.3 9.25 M262.06 108.67 C289.86 72.83, 323.67 37.77, 344.15 12.76 M261.06 107.14 C283.1 81.05, 305.5 54.94, 343.34 14.82 M266 105.9 C285.62 86.7, 301.99 64.34, 343.63 21.43 M266.97 106.73 C293.81 74.75, 323.55 42.26, 341.62 20.37 M270.7 109.25 C297.81 77.1, 323.12 51.37, 342.73 24.86 M271.53 106.96 C292.78 86.55, 311.68 63.44, 341.92 27.24 M276.43 107.29 C292.48 92.23, 305.58 79.27, 340.81 33.55 M277.55 106.67 C291.52 92.67, 303.29 77.84, 342 32.39 M283.5 108.58 C306.95 80.97, 329.56 54.82, 342.14 40.41 M282.81 107.27 C298.64 89.92, 313.16 72.71, 343.07 38.22 M287.75 109.35 C304.83 87.84, 321.96 71.72, 344.11 44.86 M288.22 107.87 C307.25 86.18, 325.19 63.89, 342.7 43.94 M293.56 109.33 C305.45 92.07, 316.91 78.4, 341.6 52.76 M293.4 108.42 C305.69 92.26, 320.85 78.07, 341.71 51.01 M297.37 107.43 C314.18 86.79, 333.42 68.69, 341.75 56.93 M298.83 106.83 C310.88 94.38, 321.36 80.86, 343.66 56.93 M304.62 109.56 C310.61 96.54, 321.05 86.92, 341 64.92 M303.48 108.09 C314.04 94.34, 325.73 82.2, 342.46 62.45 M309.31 108.3 C317.84 97.2, 328.61 86.8, 343.92 71.45 M308.91 107.39 C320.7 94.8, 332 81.88, 341.84 69.36 M315 106.72 C323.61 95.21, 336.79 82.17, 343.49 74.5 M314.92 107.26 C320.4 99.86, 326.78 93.47, 342.28 75.92 M318.25 106.07 C326.83 102.35, 330.07 95.24, 341.39 83.23 M319.68 106.68 C326.53 99.2, 333.87 91.95, 341.87 82.25 M325.68 109.6 C331.88 99.95, 335.09 93.8, 342.85 86.51 M325.3 108.23 C330.35 102.82, 333.68 97.19, 341.83 88.14 M329.59 106.35 C335.49 101.25, 338.18 97.81, 341.71 92.79 M330.11 107.18 C332.75 104.42, 335.42 101.68, 342.14 94.18 M335.99 107.03 C337.08 105.91, 340.62 102.8, 342.56 101.09 M335.79 108.13 C337.31 106.01, 338.74 103.54, 342.54 99.99" stroke="#fa5252" stroke-width="0.5" fill="none"></path><path d="M-0.52 0.82 C121.64 -0.65, 242.43 -0.31, 339.81 0.56 M-0.54 0.55 C133.55 -1.1, 266.71 -0.33, 340.29 -0.22 M339.78 0.16 C341.59 40.31, 338.81 79.15, 340.37 107.17 M339.68 -0.67 C339.69 22.4, 339.19 44.85, 340.9 105.28 M340.27 107.21 C266.18 106.21, 190.62 105.78, -0.62 107.05 M339.46 105.74 C219.79 107.11, 98.48 107.28, -0.54 105.53 M1.91 107.03 C1.66 74.78, 1.7 38.44, 0.58 1.56 M-0.25 105.15 C-0.85 75.5, -1.03 46.08, -0.24 -0.53" stroke="#000000" stroke-width="1" fill="none"></path></g><g transform="translate(840.5 311) rotate(0 51.5 13)"><text x="51.5" y="18" font-family="Virgil, Segoe UI Emoji" font-size="20px" fill="#000000" text-anchor="middle" style="white-space: pre;" direction="ltr">Receiver 2</text></g><g stroke-linecap="round" transform="translate(10 177) rotate(0 170 53)"><path d="M0 0 C0 0, 0 0, 0 0 M0 0 C0 0, 0 0, 0 0 M0.48 6.19 C1.39 4.57, 1.99 4.33, 4.38 0.12 M-0.13 6.21 C1.41 5.06, 2.51 3.56, 4.76 -0.02 M-1.31 12.42 C4.08 9.9, 4.55 5.4, 10.27 1.54 M-0.45 12.75 C2.81 9.75, 5.25 6.98, 10.68 -0.68 M0.6 20.36 C6.17 12.88, 10.71 4, 16.22 0.78 M-0.25 17.61 C3.2 13.35, 7.17 9.31, 14.92 -0.54 M-0.5 24.52 C6.87 15.06, 12.31 8.5, 19.35 -1.9 M0.95 24.9 C7.91 16.91, 14.35 7.77, 22.15 0.3 M-1.77 30.76 C5.38 21.58, 11.57 15.05, 25.15 -1.34 M0.94 29.83 C8.55 21.77, 16.17 11.85, 25.7 -0.35 M-1.59 36.54 C8.79 26.69, 20.97 10.69, 30.05 -1.62 M-0.55 37.14 C8.74 25.51, 18.59 16, 31.44 0.35 M-0.13 43.44 C10.29 30.57, 22.48 15.15, 37.81 0.58 M-0.84 42.44 C13.16 27.2, 25.84 12.89, 37.69 0.95 M0.43 49.73 C16.52 29.36, 31.37 14.02, 42.52 0.25 M-1.12 49.34 C15.32 29.88, 32.66 12.08, 41.64 0.62 M2.26 55.35 C12.44 40.44, 23.48 26.81, 49.13 0.31 M1.24 55.02 C10.14 43.18, 21.85 30.07, 47.13 0.01 M0.34 62.14 C17.07 38.43, 37.51 20.66, 52.39 -0.19 M0.59 61.17 C17.39 40.05, 35.76 19.27, 53.14 0.12 M0.86 66.85 C13.56 52.33, 29.17 34.32, 57.42 -1.75 M0.67 67.56 C18.58 46.27, 38.63 23.29, 57.56 1.18 M0.96 73.65 C13.03 54.72, 27.68 39.08, 62.65 -0.23 M-0.14 73.21 C23.1 48.57, 45.71 23.03, 63.65 -0.48 M0.5 78.65 C15.07 62.16, 26.79 45.38, 68.37 1.45 M0.22 79.49 C18.34 58.99, 37.54 36.22, 67.84 0.47 M0.45 86.82 C27.6 50.72, 55.36 21.12, 75.69 1.49 M-0.7 85.74 C24.16 58.3, 47.19 29.44, 74.18 -0.8 M-0.62 92.35 C30.13 56.72, 62.59 19.83, 79.05 -0.44 M-0.02 92.19 C30.14 54.19, 62.84 18.19, 80.15 -0.38 M-0.26 99.56 C18.08 75.7, 40.8 51.71, 85.24 0.93 M0.19 97.5 C30.24 63.72, 60.02 29.3, 85.07 -0.77 M-0.25 103.43 C32.16 66.78, 69.27 26.82, 89.88 0.86 M0.05 103.97 C22.56 79.01, 42.76 53.74, 89.97 0.02 M3.04 107.86 C24.44 83.88, 44.05 57.77, 96.42 0.7 M1.04 108.36 C27.88 77.07, 55.45 47.55, 95.95 -0.65 M5.79 106.42 C32.62 79.46, 59.41 48.86, 100.67 0.26 M6.38 107.28 C32.93 76.58, 59.71 46.62, 100.09 0.78 M12.56 107.36 C32.91 80.84, 57.77 56.3, 105.75 -2 M12.3 106.87 C45.7 69.17, 78.49 29.31, 105.78 -1.01 M15.89 109.08 C50.34 72.51, 77.84 35.11, 110.62 -0.71 M17.04 108.84 C54.72 64.6, 91.66 23.01, 110.63 0.66 M23.45 108.89 C56.44 70.19, 90.23 31.5, 116.43 1.44 M23.3 107.87 C58.96 67.5, 93.47 26.93, 116.17 0.05 M26.48 107.27 C58.95 75.43, 84.47 40.76, 122.28 -1.88 M28.11 108.53 C46.17 85.5, 65.63 63.1, 121.02 0.14 M34.79 108.1 C67.23 67.47, 102.35 26.07, 125.02 -0.02 M33.21 108.08 C60.6 76.24, 86.12 45.71, 126.01 -0.19 M37.3 106.96 C69.34 72.28, 98.09 37.5, 133.59 -0.47 M38.93 107.43 C67.57 73.34, 98.7 39.27, 131.98 -0.62 M45 107.3 C81.7 64.27, 117.7 23.82, 137.5 -0.52 M44.53 107.91 C67.22 82.39, 88.78 56.56, 137.54 -0.46 M47.47 108.76 C68.73 85.51, 88.61 64.41, 141.85 0.92 M50.13 108.27 C76.22 75.98, 104.15 42.93, 143.56 0.21 M55.89 107.37 C78.82 76.63, 105.5 49.61, 147.85 -0.36 M55.05 107.45 C86.03 71.95, 117.74 36.47, 148.96 -0.58 M59.51 107.87 C91.76 73.38, 119.18 39.05, 155.76 -1.67 M59.68 107.51 C87.16 77.49, 112.38 48.36, 153.13 0.16 M64.66 107.87 C101.21 66.36, 140.07 21.17, 157.46 -1.17 M65.87 106.48 C86.42 81.15, 109.26 56.88, 159.79 -0.68 M71.27 106.15 C108.49 67.97, 141.64 24.96, 163.38 -1.59 M70.83 107.26 C106.05 67.54, 139.48 28.81, 165.36 0.46 M75.85 106.93 C99.81 78.33, 127.19 48.37, 171.07 2.01 M75.43 106.46 C113.58 65.8, 149.05 24.42, 168.85 0.8 M80.01 108.08 C119.16 62.51, 157.08 23.11, 176.14 -1.55 M82.16 107.33 C104.49 82.21, 127.02 54.47, 174.23 0.01 M85.42 105.36 C120.34 66.47, 154.09 30.32, 180.8 0.77 M87.46 106.56 C106.27 86.35, 126.3 62.88, 180.29 1.12 M90.35 108.73 C121.57 69.16, 153.71 32.79, 184.84 -1.64 M91.57 107.22 C126.09 68.82, 158.69 31.83, 185.04 -0.6 M96.66 106.54 C118.97 83.19, 141.62 57.77, 190.15 1.33 M96.99 107.61 C122.14 77.98, 145.99 49.51, 191.57 -0.79 M102.29 105.84 C131.7 75.32, 158.25 42.38, 195.69 0.67 M102.27 108.13 C130.19 74.16, 159.94 42.52, 196.4 -1.09 M108.26 108.53 C144.52 64.67, 181.93 25.39, 202 0.55 M108.41 108.14 C137.92 74.63, 166.72 41.45, 201.44 -0.3 M111.2 107.74 C142.19 76.94, 167.59 44.24, 206.23 -1.46 M112.76 106.91 C137.88 77.73, 165.34 49.54, 206.24 0.51 M117.63 108.73 C143.31 77.13, 169.37 48.24, 210.59 1.89 M118.72 107.14 C142.88 81.28, 167.54 52.53, 211.99 0.89 M123.83 109.42 C151.54 76.92, 178.06 45.07, 217.4 -0.25 M122.88 108.14 C144.46 84.1, 163.94 59.87, 217.79 -0.15 M127.52 108.92 C151.7 78.82, 174.48 54.23, 221.55 -0.56 M128.21 106.99 C166.54 65.14, 201.66 23.86, 222.6 0.79 M134.3 108.47 C167.82 65.14, 203.86 24.41, 229.51 -1.29 M133.77 108.07 C158.94 79.47, 182.36 51.96, 227.59 0.29 M138.08 107.75 C162.53 83.31, 181.2 56.19, 231.87 1.94 M138.54 108.03 C173.92 69.24, 207.22 29.66, 234 -0.92 M144.11 109.1 C179.53 68.01, 210.17 31.61, 237.6 1.2 M145.88 106.62 C170.51 79.19, 197.51 48.55, 238.86 -0.41 M149.49 109.77 C173.08 80.59, 193.95 57.5, 241.92 0.72 M149.31 107.56 C185.6 66.64, 223.07 25.13, 244.18 -0.87 M154.13 106.16 C192.76 68.82, 227.54 24.31, 250.03 1.39 M154.98 107.43 C184.61 72.07, 216.9 37.03, 248.07 0.98 M161.31 106.12 C183.71 79.58, 205.8 55.88, 255.46 1.75 M161.45 108.54 C186.07 79.2, 211.52 48.74, 254.48 0.01 M164.62 109.13 C198.92 72.09, 229.99 35.18, 260.59 -1.7 M166.14 107.8 C188.94 81.87, 212.21 57.16, 259.06 -0.39 M172.49 106.6 C203.15 70.3, 234.49 32, 263.61 1.64 M171.18 107.62 C204.9 69.12, 239.33 27.97, 265.54 0.47 M175.19 106.09 C200.33 82.72, 222.92 58.85, 271.08 0.84 M177.77 106.74 C197.2 85.18, 215.65 63.81, 269.62 -0.43 M181.33 107.61 C216.45 67.07, 252.87 27.81, 276.87 -0.41 M182.07 107.15 C218.51 66.71, 256.87 22.5, 275.31 -1.05 M188.84 107.78 C204.5 83.64, 225.18 61.94, 282.7 0.54 M187.56 106.93 C222.51 65.48, 257.94 24.09, 280.86 0.65 M193.52 108.18 C218.21 81.28, 239.65 52.19, 285.11 1.47 M192.96 107.16 C217.21 78.43, 242.22 49.96, 287.07 -0.45 M199.95 107.53 C228.84 69.71, 263.08 34.38, 291.99 -0.43 M198.53 106.75 C227.24 74.05, 256.24 40.54, 291.21 0.3 M202.11 105.97 C232.62 72.12, 262.23 38.05, 297.57 -0.27 M204.03 107.36 C223.63 82.4, 246.39 55.86, 297.39 0.11 M210.27 109.31 C232.37 81.86, 252.89 58.38, 302.9 -1.29 M209.01 108.25 C235.26 75.88, 262.83 45.06, 302.41 -0.3 M215.55 109.28 C248.82 70.23, 280.94 28.36, 306.88 1.47 M214.77 107.16 C245.23 72.09, 277.54 33.98, 308.16 0.12 M220.91 107.73 C237.94 83.76, 258.83 60.54, 310.74 1.37 M218.65 107.19 C254.83 66.72, 288.84 27.06, 313.49 -0.33 M225.64 108.99 C258.44 70.01, 290.95 31.68, 317.04 0.42 M223.97 107.66 C259.22 67.87, 295.86 25.99, 318.59 -1.24 M228.37 108 C263.37 67.16, 295.02 32.34, 322.19 1.57 M230.39 107 C250.22 82.52, 271.21 58.39, 322.83 0.76 M235.57 106.65 C266.97 70.46, 301.58 30.99, 327.42 0.92 M235.75 107.63 C264.99 69.9, 297.56 35.13, 329.19 -1.1 M239.88 106.73 C265.72 80, 287.4 51.47, 335.32 -0.02 M239.84 107.56 C260.56 85.14, 283.55 60.24, 334.09 -0.83 M243.9 106.42 C283.03 67.63, 318.85 25.74, 340.78 -2.07 M245.52 107.54 C277.82 71.86, 310.57 33.93, 339.79 -0.88 M251.99 108.86 C274.87 82.05, 297.75 54.3, 341.58 2.14 M249.9 108.18 C283.91 70.26, 317.1 31.08, 342.28 3.08 M256.57 107.08 C276.07 87.73, 290.76 68.44, 343.35 10.12 M256.03 107.55 C282.37 77.67, 308.14 46.9, 341.66 8.71 M262.66 108.27 C280.67 87.14, 296.04 65.61, 343.24 13.52 M260.81 108.1 C293 71.82, 322.61 38.32, 343.16 13.63 M266.88 106.03 C287.57 81.69, 307.28 59.86, 341.88 19.67 M267.32 107.49 C289.7 81.65, 313.65 54.16, 342.5 21.58 M273.91 108.65 C296.43 81.31, 315.07 58.38, 341 24.82 M272.76 107.51 C299.61 75.58, 326.04 44.96, 342.85 26.28 M279.52 107.31 C293 90.03, 307.41 74.87, 343.88 34.4 M276.75 106.91 C302.67 78.25, 328.19 49.06, 342.71 32.32 M283.09 108.37 C297.25 87.23, 314.59 70.82, 341.77 39.97 M283.27 108.3 C298.33 89.94, 313.43 72.54, 341.63 38.76 M286.56 105.59 C307.34 86.31, 328.91 61.8, 341.6 43.78 M288.99 107.01 C308.06 83.19, 329.28 59.95, 343.37 44.26 M294.96 108.39 C312.61 88.82, 327.29 66.05, 341.8 51.24 M293.18 108.01 C306.66 93.34, 319.59 77.14, 343.04 50.22 M299.42 106.13 C314.39 89.02, 330.76 68.17, 342.64 55.91 M298.04 106.71 C310.09 94.21, 321.06 81.81, 342.85 56.39 M305.65 108.31 C316.11 90.49, 332.51 77.63, 342.74 63.79 M304.62 107.9 C320.4 89.9, 335.44 71.75, 341.97 63.75 M308.93 108.85 C316.6 98.81, 327.29 87.11, 341.37 70.27 M309.18 106.59 C320.8 93.04, 332.25 80.89, 342.22 70.14 M314.64 106.35 C326.15 94.24, 336.89 83.36, 342.28 76.65 M315.05 106.9 C321.8 98.24, 329.65 90.49, 343.28 75.38 M321.25 108.29 C330.02 96.25, 338.46 86.52, 341.45 82.68 M321.02 106.93 C326.03 101.5, 330.26 95.64, 341.81 82.4 M324.82 107.35 C329.45 100.35, 333.71 98.5, 341.47 87.49 M325.23 107.65 C327.95 102.62, 332.68 99.53, 343.15 86.83 M330.04 105.76 C334.57 102.18, 337.6 96.68, 343.85 93.87 M331.43 107.67 C335.62 103.36, 339.61 98.67, 343.2 93.94 M335.07 107.22 C337.77 105.36, 338.54 104.19, 343.19 100.72 M335.48 108.05 C338.38 105.04, 340.68 102.19, 342.34 100.19" stroke="#868e96" stroke-width="0.5" fill="none"></path><path d="M-0.36 0.66 C86.37 -2.55, 169.89 -0.95, 340.82 -0.82 M-0.23 -0.53 C92.77 2.44, 184.79 2.36, 339.66 -0.45 M339.38 -1.89 C339.64 37.77, 338.6 73.54, 341.35 106.39 M340.3 0.74 C339.04 33.69, 339.87 65.82, 339.42 105.84 M339.96 106.57 C230.95 107.55, 122.28 105.91, -0.72 106.79 M339.44 105.38 C236.82 104.36, 135.25 104.18, 0.11 106.51 M-0.39 107.25 C0.03 68.12, 2.03 28.37, 0.33 -1.32 M0.11 106.21 C-0.9 77.44, -0.58 49.2, 0.23 -0.19" stroke="#000000" stroke-width="1" fill="none"></path></g><g transform="translate(144.5 217) rotate(0 35.5 13)"><text x="35.5" y="18" font-family="Virgil, Segoe UI Emoji" font-size="20px" fill="#000000" text-anchor="middle" style="white-space: pre;" direction="ltr">Emitter</text></g><g stroke-linecap="round"><g transform="translate(351 228) rotate(0 182.7612554918835 -36.54598352543118)"><path d="M-1.06 0.17 C22.3 -11, 79.47 -54.91, 140.34 -66.81 C201.2 -78.71, 326.81 -70.38, 364.14 -71.24 M0.58 -0.78 C24.33 -11.84, 81.7 -54.16, 142.7 -65.7 C203.7 -77.24, 329.66 -69.1, 366.59 -70.04" stroke="#000000" stroke-width="1" fill="none"></path></g><g transform="translate(351 228) rotate(0 182.7612554918835 -36.54598352543118)"><path d="M338.52 -61.33 C345.73 -64.47, 355.55 -67.21, 364.96 -69.9 M337.59 -59.74 C347.09 -63.36, 354.87 -66.87, 365.95 -69.74" stroke="#000000" stroke-width="1" fill="none"></path></g><g transform="translate(351 228) rotate(0 182.7612554918835 -36.54598352543118)"><path d="M338.84 -81.85 C345.98 -78.58, 355.7 -74.9, 364.96 -69.9 M337.91 -80.26 C347.15 -77.78, 354.83 -75.19, 365.95 -69.74" stroke="#000000" stroke-width="1" fill="none"></path></g></g><g stroke-linecap="round" transform="translate(45.81132075471709 106.76415094339615) rotate(0 27.830188679245254 24.056603773584897)"><path d="M32.43 -0.1 C37.85 0.51, 44.91 4.95, 48.69 9.05 C52.47 13.15, 54.99 19.44, 55.09 24.52 C55.19 29.6, 53.3 35.69, 49.31 39.53 C45.31 43.36, 37.08 46.63, 31.14 47.54 C25.19 48.45, 18.48 47.51, 13.65 45 C8.82 42.49, 3.97 37.42, 2.15 32.46 C0.32 27.51, 0.69 20.32, 2.69 15.25 C4.68 10.18, 8.52 4.35, 14.12 2.04 C19.71 -0.26, 31.93 1.35, 36.26 1.43 C40.59 1.5, 40.12 2.22, 40.11 2.5 M17.38 1.68 C22.41 -0.77, 28.73 -1.82, 34.39 -0.32 C40.05 1.17, 48 6.08, 51.34 10.66 C54.69 15.24, 55.18 22.29, 54.46 27.17 C53.74 32.06, 51.36 36.43, 47.03 39.99 C42.7 43.55, 34.22 47.85, 28.49 48.53 C22.77 49.2, 17.09 47.13, 12.7 44.06 C8.31 40.99, 3.59 35.21, 2.16 30.1 C0.73 24.99, 1.93 18.11, 4.11 13.39 C6.28 8.68, 13.01 3.49, 15.2 1.84 C17.4 0.19, 16.67 3.05, 17.27 3.51" stroke="#000000" stroke-width="1" fill="none"></path></g><g transform="translate(70.69811320754724 111.21698113207543) rotate(0 3 23)"><text x="3" y="32" font-family="Virgil, Segoe UI Emoji" font-size="36px" fill="#000000" text-anchor="middle" style="white-space: pre;" direction="ltr">1</text></g><g transform="translate(116.56603773584857 120.0094339622641) rotate(0 88 13)"><text x="0" y="18" font-family="Virgil, Segoe UI Emoji" font-size="20px" fill="#000000" text-anchor="start" style="white-space: pre;" direction="ltr">Something happens</text></g><g stroke-linecap="round" transform="translate(411.1132075471702 191.9150943396226) rotate(0 27.830188679245282 24.056603773584897)"><path d="M35.99 0.93 C41.49 1.84, 47.82 5.94, 51.13 10.27 C54.44 14.59, 56.52 21.51, 55.85 26.91 C55.18 32.31, 51.44 38.99, 47.11 42.67 C42.78 46.35, 35.98 48.98, 29.85 48.99 C23.72 49.01, 15.36 46.21, 10.35 42.76 C5.35 39.31, 0.92 33.27, -0.2 28.27 C-1.31 23.28, 0.83 17.15, 3.68 12.8 C6.52 8.45, 10.16 3.38, 16.88 2.16 C23.6 0.93, 38.24 4.05, 44 5.44 C49.76 6.83, 51.52 10.39, 51.46 10.51 M31.19 1.01 C36.94 1.2, 44.35 2.54, 48.28 6 C52.21 9.47, 54.49 16.26, 54.75 21.79 C55.01 27.32, 53.23 34.94, 49.85 39.19 C46.47 43.44, 39.94 46.33, 34.47 47.29 C28.99 48.25, 22.43 47.34, 16.99 44.96 C11.56 42.58, 4.47 37.34, 1.84 33 C-0.78 28.65, -0.49 23.67, 1.24 18.88 C2.96 14.1, 7.55 7.68, 12.2 4.3 C16.84 0.92, 26.19 -0.59, 29.11 -1.4 C32.03 -2.2, 29.72 -1.41, 29.73 -0.53" stroke="#000000" stroke-width="1" fill="none"></path></g><g transform="translate(425.50000000000034 196.3679245283019) rotate(0 13.5 23)"><text x="13.5" y="32" font-family="Virgil, Segoe UI Emoji" font-size="36px" fill="#000000" text-anchor="middle" style="white-space: pre;" direction="ltr">2</text></g><g transform="translate(481.8679245283016 205.16037735849062) rotate(0 82.99999999999994 39.00000000000003)"><text x="0" y="18" font-family="Virgil, Segoe UI Emoji" font-size="20px" fill="#000000" text-anchor="start" style="white-space: pre;" direction="ltr">An event is fired</text><text x="0" y="44" font-family="Virgil, Segoe UI Emoji" font-size="20px" fill="#000000" text-anchor="start" style="white-space: pre;" direction="ltr">using an</text><text x="0" y="70" font-family="Virgil, Segoe UI Emoji" font-size="20px" fill="#000000" text-anchor="start" style="white-space: pre;" direction="ltr">EventEmitter</text></g><g stroke-linecap="round" transform="translate(712.0566037735855 469.95283018867906) rotate(0 27.830188679245225 24.056603773584868)"><path d="M19.17 0.54 C24.62 -1.28, 33.42 -0.03, 39.09 1.95 C44.77 3.92, 50.7 7.82, 53.25 12.39 C55.79 16.95, 55.74 24.36, 54.36 29.33 C52.98 34.29, 49.48 38.98, 44.97 42.16 C40.45 45.34, 33.37 48.54, 27.3 48.42 C21.22 48.31, 13.04 44.83, 8.5 41.46 C3.96 38.08, 0.59 33.02, 0.04 28.16 C-0.5 23.3, 1.74 16.76, 5.21 12.28 C8.68 7.79, 17.77 3.11, 20.86 1.26 C23.94 -0.59, 23.64 0.92, 23.74 1.18 M34.39 0.57 C39.86 1.36, 44.67 6.14, 47.97 10.21 C51.27 14.28, 54.14 19.92, 54.18 25 C54.23 30.08, 51.9 37.09, 48.26 40.69 C44.62 44.29, 37.89 45.72, 32.34 46.59 C26.79 47.47, 19.95 48.24, 14.94 45.94 C9.92 43.64, 4.58 38.06, 2.25 32.8 C-0.08 27.53, -0.92 19.11, 0.98 14.38 C2.88 9.64, 8.22 6.7, 13.65 4.37 C19.09 2.04, 30.52 0.72, 33.59 0.38 C36.66 0.04, 32.41 2.06, 32.1 2.34" stroke="#000000" stroke-width="1" fill="none"></path></g><g transform="translate(726.9433962264159 474.40566037735823) rotate(0 13 23)"><text x="13" y="32" font-family="Virgil, Segoe UI Emoji" font-size="36px" fill="#000000" text-anchor="middle" style="white-space: pre;" direction="ltr">3</text></g><g transform="translate(782.8113207547169 483.19811320754695) rotate(0 145 39)"><text x="0" y="18" font-family="Virgil, Segoe UI Emoji" font-size="20px" fill="#000000" text-anchor="start" style="white-space: pre;" direction="ltr">Only the active component</text><text x="0" y="44" font-family="Virgil, Segoe UI Emoji" font-size="20px" fill="#000000" text-anchor="start" style="white-space: pre;" direction="ltr">(here, Receiver 1) will received</text><text x="0" y="70" font-family="Virgil, Segoe UI Emoji" font-size="20px" fill="#000000" text-anchor="start" style="white-space: pre;" direction="ltr">the fired event</text></g></svg>