<svg version="1.1" xmlns="http://www.w3.org/2000/svg" viewBox="0 0 1117.811320754717 571.198113207547">
  <!-- svg-source:excalidraw -->
  <defs>
    <style>
      @font-face {
        font-family: "Virgil";
        src: url("https://excalidraw.com/FG_Virgil.woff2");
      }
      @font-face {
        font-family: "Cascadia";
        src: url("https://excalidraw.com/Cascadia.woff2");
      }
    </style>
  </defs>
  <rect x="0" y="0" width="1117.811320754717" height="571.198113207547" fill="#ffffff"></rect><g transform="translate(687 10) rotate(0 201.5 216)"><path d="M0.4499716172502815 -0.3876573116582214 C138.48236952747712 0.5091539963757802, 276.4164790590235 -0.48104965343100525, 402.85975087270396 0.8479378930229842 M402.0328841103463 -0.13597667334960997 C401.01966674575226 144.86329421904628, 400.1702914838934 290.59102114480095, 403.1645340781877 432.81202740053413 M402.7972049885899 432.9302794225228 C301.3089444248173 431.95224704543153, 201.80335485912207 431.8701107832773, 0.1670687604803383 431.8048411464118 M0.4134391805704027 432.93625331391075 C1.2141411935096957 258.8189915859369, -0.2244767226490757 86.98718278341161, -0.379027717612943 -0.8229552943741232" stroke="#000000" stroke-width="1.5" fill="none" stroke-dasharray="3 6"></path></g><g transform="translate(797 35) rotate(0 88 13)"><text x="0" y="18" font-family="Virgil, Segoe UI Emoji" font-size="20px" fill="#000000" text-anchor="start" style="white-space: pre;" direction="ltr">Router Component</text></g><g transform="translate(719 113) rotate(0 170 53)"><path d="M0 0 C0 0, 0 0, 0 0 M0 0 C0 0, 0 0, 0 0 M-0.5635378993721554 7.042197693933837 C0.7316459709292096 4.5750881324948045, 2.682111907304981 2.952317577615121, 4.458029940309471 0.10260311773393693 M-0.21945595067458845 6.621943274189823 C1.941103100360071 3.9365185090574375, 3.739831588659066 2.19040569365907, 4.921726442458576 -0.003541642815131585 M-0.8166636279691352 13.410192895352424 C2.875140282200584 10.327682907101869, 5.800874037058575 6.431752955069071, 11.690406377565992 -1.4951376144692539 M-0.4214475951064719 12.483315208971083 C2.0298160148418414 9.451539246915694, 4.500118411160725 6.058616535237363, 11.114155106198918 -0.12025777445288877 M0.5164296971121569 16.738226181734973 C2.347972218471838 13.674506934802, 5.83005384317714 10.480135999885317, 15.246755212082942 -0.8411922075855562 M-0.514949112250493 19.0517194372608 C5.284268678150598 11.532532629082777, 10.130156280827638 5.299766436903681, 15.471436406954606 0.7447654425096681 M-1.3564301131107595 25.7223672174803 C8.55996400349793 13.350322640387935, 15.478955624217999 6.172420546558367, 22.135391010248924 -0.7433224791497466 M0.154506918247721 24.16380792269027 C8.441797834411977 16.243501604431884, 14.69269707661466 7.5774944863575655, 21.446390578800703 0.5168510837643865 M-0.6374012594530925 29.144300414014808 C6.265374438599245 23.932477675809565, 10.829953842421165 17.525327479411867, 28.055124456670494 -1.1507758242997586 M0.20658876472612775 31.386757569153062 C6.111200494045924 25.00056871528759, 10.70991815525187 18.101406211669595, 25.781631699439497 1.0803398782399238 M-1.8620751035493335 36.093310331740724 C11.604362163138886 22.151870216531762, 20.447287109160698 9.558575162327259, 30.274860718703664 -1.5024147628561373 M0.6998212764877358 37.3934711011139 C10.594938647399138 26.372890682227087, 20.63839829914128 13.19659579601348, 32.1800248971645 0.677643720178235 M-0.3551055070339686 40.82274403106027 C8.957647509282067 29.381570116025365, 19.037660231497668 18.745912323620345, 36.400206347742426 -0.804200993748335 M0.14976055283555922 43.21231999303751 C12.96755004111022 28.669277303299815, 25.162612421121995 14.166468624936936, 37.302230434307205 0.8004815747123679 M1.5516140814869814 47.264139813044 C15.293462352942228 31.27542061871351, 31.12552514731308 12.404282036590935, 43.37194151114278 -1.416872036796903 M-0.3141831438989229 49.366273210056946 C9.04359974156358 37.37690795520639, 18.52989115028591 26.151526801777756, 43.14017593916111 -0.9727971639157289 M0.8613638293695303 53.99426015787135 C17.588091625597446 35.991973371466656, 34.20884679005669 16.74076663145641, 45.96754776029873 -0.7682645909312917 M0.7686678145778032 55.46493014641415 C15.002937613193922 36.003481449848664, 32.157999660429994 18.585961448949995, 46.89358417405772 -0.06453603057300583 M-1.5858747119923322 62.522768366612894 C19.45775937582052 40.98085512447751, 37.50451246154006 18.09509810551026, 51.79968026256627 0.8590088240279563 M-0.9332138094027727 61.117197267242176 C13.366495155006252 46.35183372469154, 25.14316523413019 32.979902973910086, 53.343445267290534 -0.06044813101750535 M1.228994595766899 66.25926149967084 C16.57817484604216 50.24456330983489, 30.08627749868849 30.98387128291663, 57.817695569339406 0.6152365091513836 M0.17385308346235462 67.52332104700575 C20.39513650629302 45.02841878029594, 39.12999659440169 20.90910615974861, 58.72854448119105 0.20306049988381503 M-1.7139946089872709 71.02739911744742 C23.406243326991962 47.431607185438494, 46.33128778433188 19.848832311344296, 65.30612384797413 1.2959309446184406 M0.7655808424761901 72.6140167101696 C15.298977299299333 57.32847155753687, 29.568964190418157 40.475655857941334, 63.11893444405277 -0.5237857436270943 M0.3079517251391479 79.57903202101318 C27.373863385140396 48.943871162436366, 54.89878515365664 17.381202407636316, 68.38619664986446 -0.3704945685003267 M-0.2434640200297764 80.18959697186676 C20.299332370249775 57.004701785140035, 40.5583792021903 35.34544401469226, 68.29246291820719 1.0085446035828127 M2.1028012655021655 84.56123519054756 C15.758256579690105 64.21731888751779, 32.43349187733091 44.130062581259246, 73.01431914236638 -1.5104025500254465 M0.017552374237965296 85.5120049763392 C19.060106236439875 62.46563964864594, 39.2954513465167 40.45704731601438, 74.10824503194782 -0.6137865642444922 M-0.9347769365042282 92.80398442712114 C22.118683795622076 67.30302627034958, 43.289212085580026 42.39267930710718, 77.48359787687389 -0.8172546988864013 M0.25225903761090507 92.21749093871996 C21.940660286187825 67.57087883986041, 41.89347514984029 43.942743701585876, 80.38319104760615 -0.5553102819759914 M1.5190007574854718 98.28718929113612 C22.425655299210554 73.64834561701781, 44.47040262527936 48.09062703522444, 83.42231302074299 1.6607114650962842 M0.714493319392048 97.90864508347377 C30.525593942446008 62.39195360996543, 59.541330666906745 29.127137374619195, 85.26547859347568 -0.8939271553697097 M-1.5011445141632294 102.65482184299472 C25.453471182112377 71.74916597528227, 53.33786146745693 39.287866542798064, 88.29544612536768 0.8081592429931419 M0.36512381888439904 103.29352638506535 C29.684258273992786 68.13357992673423, 60.62748286764702 33.47937526110046, 89.1110804318879 0.29176928070738484 M3.5004458869151804 109.4649166430992 C31.761009594218418 75.29216151604192, 57.59047579881748 42.895520191708286, 96.403152358104 -1.34502388501636 M1.9970503853909705 107.06066256795944 C30.3112704387704 73.99550866549075, 60.11481506383673 40.42982657895294, 94.85723669113636 -0.24018407950273968 M5.542486157067216 108.93015159140622 C36.31237964816573 75.09109354926412, 62.91093584066598 41.82013447973756, 99.38228827034587 0.6639503821383173 M6.672322176195777 107.2446309461752 C39.91707546752805 72.46089937154827, 69.48289651706344 35.3138123265047, 99.89898263355249 0.017556729132955695 M13.012214789705858 106.96023414943187 C46.22571517133119 68.60507437435129, 83.26780982467986 28.44694027967782, 107.20488402944935 -0.056905475363372204 M12.9426063956493 106.89344464529125 C41.953247670734825 74.33827614879519, 69.56902338171633 42.173586367406074, 106.46262088742984 0.15896610085642493 M17.31992583622508 108.6195151182467 C48.79195282145471 71.89170930571655, 82.17064386856362 35.98255840207847, 112.67967118680842 1.5333218435491105 M17.878719556083013 108.15116638044061 C41.667682532398985 79.05128085579832, 67.77747973819774 51.18230530872089, 111.48224921509988 0.777325500800707 M23.96108696398091 106.86756947803016 C54.924502427207656 72.49826681065053, 89.1659212511735 30.924868451366322, 117.79449588078859 -0.6245206007219863 M23.50774553579044 107.62348929586526 C47.437213716766266 78.02604578700385, 72.00549455502149 50.852525714903415, 116.31717371586564 -0.44274359656944995 M29.01786722436733 106.84687302985282 C55.67043515697458 78.12883531429095, 79.77243454421702 45.00877612596988, 121.49814174975535 0.8244767522255358 M28.689563347103068 107.29041360669822 C54.21693159164335 77.64837914644866, 82.40405600402364 46.13873873575027, 121.90873173903009 0.4138490332106528 M34.15760928474034 106.09512575389408 C64.2844799982874 70.84866106848726, 95.10275749980887 37.0141743490054, 127.48215284510269 -0.8365852965377556 M33.490319368314395 107.34356995718144 C60.6760696580194 76.48787659586658, 86.80065535600671 44.42927944489294, 125.93711479692473 0.6317911052740826 M39.13435719649394 106.83292845122455 C66.96744289516603 77.40282108489758, 91.4925221239346 45.38264262403789, 134.52324683418664 -1.4293817668324067 M39.05895511175592 107.098896062448 C69.51194192679668 70.15734642817716, 101.90580526264338 33.87527106687622, 132.5387817678431 0.45740076386279327 M44.78732862698415 108.17610610202362 C71.40112753552745 80.61153717247454, 96.4055898245909 50.71362709989614, 136.9848427684012 -1.592686857587907 M44.00067945572117 107.83396006673982 C67.62955851853033 78.87723483115903, 91.23713671428929 52.06077984503297, 138.18298666411667 0.011303224109795451 M49.54244262760493 106.4233845073619 C73.04321516280336 82.08312142360796, 92.23457519246696 55.361550720006214, 143.81553331510233 1.4299494113752615 M50.253496412541594 107.70063718518998 C78.7810122890868 71.71294852377528, 111.17532314605015 36.68628283611616, 144.04525086403893 0.12575413025710702 M56.41079186571232 107.26871364741882 C82.83569473812307 76.21638232597172, 106.33337170346152 47.15581147597014, 147.05061252568404 2.077877841127588 M55.46167736051074 106.56243306204041 C73.7989506654808 85.8748156574909, 92.06050182697385 64.11570688828009, 147.8838908799414 1.2573161974377172 M61.4901703927003 106.08894432326488 C93.20541745925408 68.0595297411925, 128.926384836652 28.973582414120074, 152.8105480675024 -1.3143265881514452 M60.852288811960086 106.90716041242413 C93.13843972912528 71.34221325395094, 124.82272802894806 34.546331017653216, 154.4134905901176 0.3241825698936083 M64.96354587592488 108.1561515150796 C86.53935702680656 84.15976571464154, 106.49812964204955 58.34199858671401, 157.8025089919513 1.7708119246086937 M65.60866464518314 106.68426238058315 C98.88574179942815 72.19200447516508, 129.93735370672567 34.908702467195894, 159.18142900689895 -0.38114653724218783 M71.60058736678003 108.92531102393349 C95.73423111139925 78.66564802497692, 118.72851295469273 51.864448826858926, 164.3188379663868 -1.754006640412527 M70.74693387251138 108.21748918165048 C89.42406554090174 85.01014724898398, 107.48863051448953 63.32525382623423, 164.94135250857903 -0.354540479727703 M77.7561375326218 106.24662283000602 C100.7458183590097 80.29370519846934, 127.65379525882418 50.12925633620826, 168.7385790422029 -0.2931814821445755 M75.48949287223834 107.04222145986809 C99.1163455983222 82.0323005181509, 121.25172213246594 55.89680230522715, 169.5297026074893 0.03243845757009467 M79.87174042484415 108.65318773436773 C115.98865910666169 68.00133488387183, 153.24690392221356 23.942386288995905, 176.5259498867556 -1.3558876204079695 M81.14153315669549 106.81814693036902 C112.68265277323226 71.157288794154, 145.37666386223748 33.986947585112475, 174.23918818192328 0.3698584188931875 M85.4741137108031 107.57333071719806 C118.07508195887253 71.2212624080787, 145.90374674511267 35.9273007544232, 178.73186955143888 0.7316007458677802 M87.46451360417635 108.16658373739521 C111.10038075914485 79.32863702113082, 134.38788565432415 51.88049157546536, 179.69531324421246 1.1220946193745647 M93.67667644189264 109.61827757956759 C125.37846263141213 69.31862267480163, 162.63522706850983 26.026319417368143, 186.9924307036088 1.0382335968621987 M92.55268822701241 107.58315709607974 C123.39464403092553 72.1635793216005, 154.14122418543218 37.14609617850677, 186.22984917265038 0.46515270325625124 M98.17802128546879 108.79447830165573 C118.8824027797372 83.76845180506915, 138.68183775092456 56.7366529792299, 190.03042739465928 0.315861733645761 M97.20657840349719 108.27512265066453 C126.7478355874337 74.20910133179376, 154.8550776431793 42.07193748290058, 189.75736247956849 -0.8006546143287778 M103.76344229292552 106.79128368453307 C138.70717867486889 65.8051883650183, 174.28091188434703 23.53647401659161, 196.65382729194636 1.211560136397992 M102.80950064596216 107.07404311628265 C131.45305667643092 72.88449191846277, 160.20738325653878 38.51144159914237, 196.14868704326028 -0.4133841891384975 M109.30340713161883 109.19326870837904 C140.43764073497567 69.23015387770377, 173.82797988577062 29.093296217107635, 200.257299446864 0.5553046061893809 M107.70103883270082 107.27311163717604 C133.25009688310595 78.12943075418181, 158.5326680231446 50.359980951114515, 201.10745187605727 0.2632141939600814 M112.25508485294274 105.76790917426418 C139.75284471033214 76.92312950958645, 167.3327197866812 43.17192903403139, 205.82068652676827 1.5722951231994102 M113.0535719760447 107.53982842847775 C133.42726871219872 83.11347848145196, 154.98152147309347 59.68700708030821, 206.54355335625297 -0.9229788207910588 M119.00475909526276 107.43261464259074 C138.26287796474946 84.14253277841766, 156.63537164366613 63.723039893565364, 210.4105325830531 -1.8293675115013883 M118.58968742529677 107.50803371465251 C136.90126770833194 87.04872629676598, 156.2552000349229 64.90066083598128, 212.44968299617886 0.00022448174111389108 M124.64965099694436 106.76885717376092 C154.44857758650988 71.77855344535678, 182.17118769737007 37.52612377066117, 218.17855528307456 -0.8463583177335323 M123.73900377976005 106.91703647016504 C153.90206707144296 70.95155891082449, 186.48024083585184 34.78760430671643, 217.27479967412847 -0.03335775420141829 M128.77974210938154 106.53630006884528 C147.918988117354 86.43552075888141, 166.78906578886827 65.4076262650457, 220.86317367822662 0.5075485055734674 M128.79499380176603 108.75074316014839 C159.56561293384613 73.03423258809568, 189.8311062920317 40.23819807010021, 221.8006574024333 -0.2156003134856661 M133.82018759993036 108.63983080802328 C154.93870640706345 83.2130109142768, 177.41160800620503 57.51706748185912, 228.78798043586525 1.613802938599136 M134.63239761960824 106.82969067884451 C164.92896166799585 74.48344872806406, 192.96523785300093 40.0384310040408, 227.51527755938682 -1.0267475518696045 M137.53284401998474 106.41723769236546 C167.51334984314252 73.51854279003317, 199.3319209390605 40.091205356817255, 231.3632696073845 1.5367557824139624 M138.58375049561812 108.72372299138647 C160.01620949660577 83.82925311650015, 179.26477129553408 60.134291892985146, 232.48947665732055 0.6772632457797556 M144.01474153690074 108.85153320205126 C170.42402070222136 76.58633574085636, 198.3829228302804 49.456990742606024, 239.4284498311498 -0.00930840257980492 M144.81285505808924 106.58931449201617 C180.9299618524432 66.92370426916793, 216.17937314767727 27.697694980163106, 239.09427954553746 1.2568348039271626 M148.1996117020723 108.85863063815125 C174.07659832611083 80.46431938820508, 198.78153712850622 52.656390540897725, 245.03386724552672 1.8539574440200681 M150.19130906935303 108.08224664586672 C172.15287652576126 81.63674594164364, 197.63088594946512 54.048692744528815, 243.15774232334059 -0.5721614029626494 M154.85635968285544 107.49966748084486 C184.52009119394154 74.2491482042245, 209.39273389721768 42.6164525817277, 249.22262840190922 1.6830916232841133 M154.671977657703 107.19493134718002 C185.18447078393336 72.86888632278047, 217.0415892119807 39.0537361080093, 249.1217752530614 -0.5992564097566486 M159.09059203064422 106.26868203120267 C184.03314455310218 82.65222921131837, 202.88927455293904 58.95810990834517, 256.3730134676533 0.6798566153917989 M161.16552108547071 107.16908756108916 C193.15462796358693 69.42968428130777, 226.82499572692547 30.753162648104492, 253.75955596299343 0.4726491777871331 M165.34308891279457 107.3049367694041 C184.12110098810035 84.17828236419251, 205.8720968732418 62.26629429568394, 258.700003994153 -1.0210842785863576 M165.91386698094962 107.33306468183605 C196.60453777813788 74.32239736308067, 225.8575615523937 39.972100810164264, 260.05205721546815 -0.06003817519828658 M171.89133188070053 109.68059499651973 C207.0697800258591 65.65669280238704, 244.21899359422878 24.466071995875595, 263.2537551487643 -0.13984357847081696 M170.36673810647125 108.0145191745538 C192.40143019404675 82.9953489857591, 213.2485465277756 58.791073690562165, 265.5615191387791 -0.06428157447086846 M177.84797610171807 105.61304419272896 C203.1222072279324 76.35756446788552, 233.26130858017547 44.013418512755514, 268.4211234828812 2.036367016808839 M177.55512459032906 107.37773793348428 C202.53113949732068 77.6801035807475, 230.02314286709435 47.25822325348881, 270.3079769952578 0.3422629451023056 M183.6623781272412 108.75257265910238 C206.1627508725119 81.11429516641607, 229.8842642444847 52.88597034587489, 274.9241391638597 -0.13444001256786464 M181.96781169485456 108.3363149237606 C213.60758198731094 73.01185856589237, 243.75870576879487 38.63046807851535, 275.1427334131976 -0.3714302222367394 M186.11906812462595 106.39469287581946 C221.31616510788268 69.99807010772489, 259.22933477387124 26.927333640097743, 282.32153374309377 -0.36135136553036773 M187.9248520483413 107.3904745396247 C216.36210272928855 73.23176904448623, 246.7118504619886 37.526707166781804, 281.62488615493015 -0.23707961135494315 M190.83927764526624 107.76781814395068 C214.733247283984 85.05686439873412, 232.8101613754887 59.81501017976141, 288.00721238793943 -0.20822956189923048 M193.4540934131207 107.5397482462096 C220.24000046841664 76.22040585654975, 246.9803425193142 46.51384675663066, 286.3948003487489 -0.949773328010366 M199.27941185651815 108.24558594367555 C232.2895571435981 67.647245059449, 265.466268684194 31.348018466781085, 291.7117816497907 -0.8060363006039495 M198.6646509174863 107.12029793775729 C225.85782591723233 74.16535221534893, 255.9164349338906 41.07312651175427, 291.05063625698534 1.0447075929299956 M201.23257730977568 109.63453457606462 C224.41367170615246 81.49901435394091, 248.15651532695634 55.42230902753219, 298.50102169600353 1.3594908985350003 M203.62343482376966 106.71759257940082 C231.33664691947885 73.59037299339862, 260.4674709073267 41.53042642390659, 296.521821507933 -0.6127874542918335 M209.8270541723948 108.3864265212973 C239.7095435875927 71.18890528211338, 271.9700814306865 34.88592216379111, 303.277414077972 -1.2644846634119062 M208.72862276026422 108.00373156538208 C234.26205679855522 77.56270943241411, 258.83381065601185 48.002224812055395, 302.9455788639234 0.7178979954571219 M214.0278239957695 107.88592508044414 C233.9403377003561 85.3924278342518, 251.73718722530222 64.23379192736513, 305.77861396305207 0.914424493734856 M214.58618748930144 108.65012136083416 C248.29490446373921 67.27646327585259, 284.4384748870221 26.91204737407965, 308.04039845324996 -0.48644916358111345 M217.6350419472558 106.66291773368464 C248.54841079808438 77.1401966387502, 273.6390939680754 45.15267608301496, 311.0789779026377 -1.078493328954238 M220.38336913917487 107.16479885999904 C240.24331681287245 81.83334699111322, 263.17440376263073 57.09541930992597, 312.9825655382442 1.0002650337264356 M223.7855645782477 106.68019278208934 C256.8385158010901 73.08545506949406, 289.2316912995912 36.42240191687249, 316.5880360640849 1.4272743487003368 M223.76520297221603 107.80510802800976 C246.7131086661289 84.37135881289728, 265.61763883935 61.78583114145013, 318.7796327471997 -0.00923501837820595 M229.95142205610114 105.54576270583763 C263.42889724666026 70.94425810270792, 297.2493795172672 28.620004885254133, 324.5520199987877 -0.9648591722309448 M229.20799161671835 107.41502325910821 C261.9534766940118 69.28066906490423, 295.8528041644229 32.94329680954503, 324.14694784244784 -0.20291785476206314 M236.4413459322102 108.8005408060001 C270.05234180061746 68.9092320487659, 301.76195024963596 28.732994342245263, 329.05233487410214 0.4937435884314425 M235.89583283501338 108.33782601842748 C268.0485192794741 70.98225055123373, 300.7095604638675 33.32724055716919, 327.8811259522822 -0.932121581183111 M240.74318234494038 106.88537414297903 C258.92890052010813 86.8284526544562, 279.99908284186813 62.62294585062199, 332.50708724142214 0.9846209317580019 M239.43803272640415 108.00813778043235 C275.00832301608705 66.87453168907972, 309.3150184656398 26.73998141668183, 334.7365773390343 0.701122767491654 M245.30571493265714 107.65517227717655 C281.6318472632314 68.4678910116902, 312.63247867677376 29.433771372021596, 340.66955726810374 -1.6654646620718268 M245.0259286401936 108.09104876958745 C269.6985425789621 82.49308422462018, 293.6107790510491 55.28457164792202, 339.79897963099756 -1.3185854144958284 M249.3204877467545 108.89303600966323 C270.0147080129734 84.20446239525532, 290.76954331566776 60.26703796520724, 341.16154941856945 3.567278848680843 M250.58971208871327 107.62124670102585 C269.49790432438465 86.66341919688494, 288.95314532477664 64.11028941282284, 342.39362850353206 3.256789078655828 M255.06421845458846 107.2772903206186 C289.98631132400516 73.80026431886725, 318.24235205419575 35.88543817696221, 340.4400417732037 6.851867684863805 M256.51584195025663 106.59504971898959 C286.26364210302285 71.14456668718722, 317.47827829395584 36.964445373235506, 342.4270869979597 9.511911881856918 M260.400326107553 106.6691610111131 C286.48970418469486 76.2751076186178, 311.8162605890709 48.74808458807166, 343.5153631153245 13.48841350576538 M261.5235722371552 108.88308303861159 C290.93760596623 74.137837209698, 318.97976225375396 40.9977106670362, 343.480362608536 13.97895031845826 M265.7774033730041 106.32509806132626 C286.99548382417703 82.2576218440448, 308.23318209716257 61.023346047387655, 341.8603074963259 21.478767112456126 M267.03842432770244 107.06760230413389 C288.8307569821639 81.87569968460241, 311.7997732642334 55.37746612689563, 342.0930218475925 20.833217103592915 M270.73074430233584 109.1844522723286 C298.247748479957 79.29984867097107, 323.7479296800704 48.317040717854695, 343.03284258356393 26.72000348511554 M271.0687147342299 107.35517023068951 C288.2362265016262 87.88058698833777, 305.52070884547186 69.07243280865575, 342.7608985934228 25.71165538150288 M276.88081656290416 106.08179862429957 C303.15615919855225 77.9506419052677, 326.0296807871751 49.89275615214927, 343.17763742843255 31.2920984248141 M278.57902733503107 108.4139799625204 C293.32139483126264 88.94279185748007, 309.9898729503059 70.07654816873809, 341.8126218583582 32.62551536732113 M284.4347892061031 108.03461291830969 C301.042812366439 86.40633987253187, 321.0652947785359 62.251894953242, 341.36847566929725 40.424961491954065 M283.3667411424375 108.28653171475959 C301.5647501076032 86.14781491693785, 318.17778000427353 65.70333892421348, 343.1270289917019 39.552387285512424 M287.18500489928863 106.45559513453847 C305.964434625887 88.11820307479728, 319.32467440500653 70.72594954740653, 343.3900784445235 43.01256474693767 M288.43550253474257 107.22695613164908 C307.7525998699414 84.41213361741325, 327.4679928222023 60.032644669030645, 343.2899885927567 45.5753301105415 M293.0105076938547 109.44034607405644 C310.4664137907276 87.03160539149745, 329.886014161443 69.19086701626965, 341.51992730550546 52.127071490835476 M293.87175302427784 108.61369092832189 C308.52910036879325 90.53906294395628, 323.51692896428386 71.36196288981672, 342.7512234238543 52.02200030754142 M298.8755152571574 105.97969071704303 C315.98129426233567 90.49386181560618, 329.7440731307588 74.03345532318653, 340.8706774195989 57.985869203826894 M299.2182014893368 107.78680424901997 C314.337724373805 88.48759493244917, 332.4685727218643 69.55211523936372, 343.541723613288 56.05668477075409 M303.3309466405907 106.24735486456878 C313.9055792834755 94.29971876051678, 324.0539715913752 81.94482159658264, 343.891685338198 64.23924618698248 M303.350351942251 106.96067130887634 C313.4019354168524 97.08573108766825, 321.8249405640496 85.63393899732046, 343.1502744233895 63.59297746531257 M309.5128945115106 105.81228849681321 C319.8730215578041 93.56349604179529, 335.1112109638348 79.48319909355253, 340.71142219966816 68.93742450070451 M308.8499757613139 108.06129775213304 C321.4687359804709 93.05858242340643, 333.19116151705697 81.26362531468806, 342.24086945346164 68.88581236568163 M313.64415292131105 105.92634241484677 C323.656881377592 100.74519459974285, 330.2646259967413 90.39585777456429, 340.9192966423749 77.04468870539515 M313.88163945885697 107.63899629392301 C321.01173503338657 101.0543876918765, 326.7048193699008 95.56312149512988, 341.80953355280747 75.67059219632594 M320.0326895373481 105.73659159884899 C326.1361340675102 102.41482413457383, 328.05605361543707 97.62025635140243, 341.3474777177123 80.95351460212495 M320.56617691317376 107.70571007848828 C329.4187627017098 97.21855060227232, 337.884918413254 87.40758233373562, 342.3411457337586 82.30231717237857 M325.57317341101583 106.57301184989039 C331.2213021847373 101.17918031615588, 334.10853835326657 96.86294591635489, 344.4133080930362 85.45160217107343 M324.8572171365958 108.64768932096187 C330.61947285824397 101.11346105463495, 336.3941421377061 96.26497050112009, 343.5268523746083 87.3476179380815 M330.7440118501027 108.07456147000191 C336.2220188708728 102.91084948958897, 338.8543954679805 96.89607662525688, 342.61276425134923 92.1799583842455 M330.8963002180745 107.98637183569369 C333.55341763859366 103.40537692761784, 336.00576694124095 100.36403468883441, 342.18055110250197 94.41905037997648 M335.9170820032818 108.28328001832932 C336.56801951679086 105.11152283145188, 340.2424444879327 104.12985159739247, 341.59095342397757 99.9296486144857 M335.349647779913 107.66588378472596 C337.8962835243198 104.42902905797007, 341.033373833553 101.82928810965142, 342.0176113670326 100.13521782401665" stroke="#228be6" stroke-width="0.5" fill="none"></path><path d="M0.9032851153491289 0.06402701779834927 C112.16254088550978 -0.5187725572262718, 224.5355475095065 -0.6912013736453964, 339.38528465915755 -0.24575380401761832 M-0.5386340391753093 0.5207829686476365 C113.19235851253933 2.1076816689293922, 225.14068700244826 2.4736230718861165, 339.76179528152215 -0.4837096401091442 M340.7669616565108 -1.9938785657286644 C342.337934583649 30.430100985616452, 339.1530488433688 63.881218293309225, 340.0846188887953 106.63838104158641 M340.32447268441314 0.6209493093192577 C340.02168685220175 27.084714959561833, 340.47762268804007 55.60711632147433, 339.1604198403656 106.62611429020764 M339.1164960527356 106.19003360215562 C266.85460083736444 104.38699625221162, 192.70372798461844 106.33786876858667, 0.6581355576341897 106.32347055997222 M340.6501228833286 106.18442915673178 C256.5221967653016 103.97348423730787, 172.2509824170119 104.9759847538968, 0.5040743482370005 106.4698637482466 M-1.5901135578751564 105.6284478083253 C-0.24281583510339244 81.2263173647225, -1.2117439337819813 51.92603170871735, 0.016041599214076996 -1.6559643372893333 M0.847572822123766 105.18769673630597 C-0.16590953700244426 69.56564432382584, 0.29276525147259236 31.445342857390642, -0.7535756640136242 0.14912239834666252" stroke="#000000" stroke-width="1" fill="none"></path></g><g transform="translate(843 153) rotate(0 46 13)"><text x="46" y="18" font-family="Virgil, Segoe UI Emoji" font-size="20px" fill="#000000" text-anchor="middle" style="white-space: pre;" direction="ltr">Receiver 1</text></g><g transform="translate(722 271) rotate(0 170 53)"><path d="M0 0 C0 0, 0 0, 0 0 M0 0 C0 0, 0 0, 0 0 M-0.4140213347645352 6.756287868370406 C0.646296084364673 5.027407649398548, 1.6398932690819892 3.634283866482101, 5.482868656101173 -0.3077469010057634 M-0.143408998069341 6.284392482091777 C1.6969682930439276 4.349974199122928, 3.5482779599242193 2.19404302742881, 4.6790500025772515 0.1620288457569891 M0.9292143651377067 13.486798155724586 C2.162873434062016 7.466181379904627, 7.624953153233033 4.890171676700296, 9.648024864447247 -0.49315736935588106 M-0.5050716540683402 12.666365060627042 C4.0908657853697985 8.26809113088315, 7.610667651851524 3.368885297510144, 10.08978226031078 0.37809835924652835 M-2.014074812694476 18.755033305753642 C4.256883143496456 13.494896737262142, 6.468358095102772 11.302042720588972, 16.00309734000214 0.5496645799768141 M0.6120803290465613 17.88988028736847 C4.732869592779377 13.957088120095687, 7.979535992654018 8.36152691798612, 15.457220721527417 0.5394141866755655 M1.1175748260877345 24.414787267982124 C9.034542714331536 17.066729861792815, 13.755372213029272 6.501393827651345, 22.44233938893106 -0.03813511373703449 M-0.6621131708659913 23.095486314683317 C7.826187450241793 15.800763821582985, 15.294420145494803 6.604280873072291, 22.02297207927134 0.6824603019445661 M1.250369110195841 29.707813737679473 C7.753348710004912 24.988277167664517, 13.651020662436114 17.32963446024523, 24.923985848810883 -0.34251581560701716 M0.2181315841664926 30.57019477500414 C10.450273905588693 18.976229944671687, 20.983368405801116 6.9098566308193945, 26.056516184147807 0.029301233032041907 M-0.5062637907546481 38.46119024399792 C9.802937290784277 26.20218703633215, 20.148582537985693 17.593102922490438, 30.940086418247617 1.607327923296321 M0.6567984278220216 36.63754315842067 C6.380528128906114 27.780298294978717, 13.580059820976283 19.04588827119681, 31.192114648825324 -0.7379538601950522 M-0.3788332071482188 43.46293181608968 C8.63012305583091 30.851096153537597, 20.895107143328143 19.280864726642303, 36.272517179885256 -0.4880226272064725 M-0.3366600562213904 43.20310020502262 C10.411334417932714 31.348315130458264, 20.226586678397574 19.77893899396682, 35.92026172001039 -0.2113262469786683 M0.3520369436591082 50.47611972377531 C12.441532485655761 35.23349901362076, 21.837344427854816 23.074759227127167, 44.4914528323298 -1.4858870181859487 M0.7595003787427359 49.14359464556806 C11.212827649605277 36.824172808508905, 22.23520131263968 24.04531351761222, 41.711156510371495 0.8303557325481421 M2.1940213602733465 54.70593441598426 C18.48156415147999 33.79823630882359, 33.32892201449793 16.946246101934967, 47.95689445822525 -1.0138089798215582 M-0.5532711546170859 54.14894813992392 C13.604787021808713 37.89551073473963, 28.245408711304947 20.861413184266787, 46.64123076661515 0.5841333091434286 M0.44462112533848597 60.58733216253708 C16.861886512945826 38.66005773149101, 36.260715198788205 18.22806472310576, 51.317141756177605 0.2427669368161567 M0.8327070904056342 61.88495191884826 C16.87860632132855 42.56839843344575, 31.695022634101434 24.182441485407765, 53.516621101409854 -0.6897593573258511 M0.0335769084700317 66.252077992586 C16.526635932551375 45.44870353728931, 35.73644270863712 24.78909685994026, 56.51032080883087 0.3281720015477383 M-0.9012373025110989 67.8352997224308 C18.006515779221886 46.881292318242465, 34.71978268340282 26.318467916229466, 57.499696761462104 0.4947814638983452 M-0.19530812071651127 71.54287443528322 C23.791505600003727 48.97081127283427, 41.35330436288039 22.497271649831674, 62.26285631479104 -0.2711633366973629 M0.40669200031071995 72.69071654076127 C23.272252929487927 46.563364675142594, 47.877906839813285 19.48475844360477, 64.2325318594404 -0.06294756731703188 M0.797654620422847 78.02749026044933 C22.337797695910535 54.52481995355602, 41.26247908750254 31.961716638795927, 69.09099935670211 1.160967191901399 M-0.19441700442241938 79.73808735459772 C23.101145164657495 52.86183749817333, 47.376997782730875 26.17998396366167, 69.46343314205124 0.9122197797860636 M1.0904523304941165 85.46579341701374 C18.657390099900073 61.75603645514944, 41.16990328498132 40.19217307472727, 74.7992996331701 1.282869036273496 M0.6992285459579932 84.7024900738071 C25.966214043653178 56.585678376869524, 52.82839523555255 24.592697821776518, 75.17041222196313 -0.7413573349253966 M0.8008985921412872 91.59742767479703 C20.432433084153924 65.93637827508874, 41.34243404349501 44.06028182442507, 79.48213322683898 -1.5173765337605545 M0.47265414815844764 90.90987217914746 C23.014882125949082 65.63721591103037, 44.278490000544174 38.47929291737169, 79.18771334588257 0.5405498193066052 M0.9290465749798642 96.60884556295142 C22.503983298157582 70.8934403795142, 49.84633279953857 41.27153934135434, 85.02217483631478 0.5904109307287229 M-0.040468864143051064 97.12908366070852 C27.21541302524509 64.75483546322369, 55.25365731080575 33.30946808478893, 85.32928562647805 -0.8646370976509559 M-0.3609880513746475 103.14743711062911 C27.00600681747168 74.17022938518701, 51.2678051899138 42.248824810621066, 88.09192554424146 0.6661876995618599 M0.34899959273150216 102.96100575858 C26.77448042102471 74.0002507372563, 51.074951070148906 44.14210595615633, 91.01531081045607 -0.6036268550400479 M2.5089728826932642 106.07152984698237 C32.08341906262508 69.0949828686945, 65.12048935247417 33.055784156296454, 95.6521850492251 0.7120092216683247 M2.0606683524601195 107.96355096285166 C28.413148495472804 79.92696601153463, 53.42455684488629 50.58784871842024, 95.39567551048518 -1.2599352929937027 M6.093288104780115 108.69096964071785 C29.829382238764847 78.3342270496371, 53.33786510199662 51.97272534462797, 101.9535794339096 -0.5402932331313437 M6.931733056701816 107.26724385316764 C30.05765186169853 82.36257020213007, 50.58651854324048 56.42459231869586, 100.97649897327179 0.8087913192461187 M14.267965639548883 107.30950692210166 C41.09814663049686 71.26955559684572, 74.7214112065993 37.067866472640276, 108.03503339690101 0.08321078409230864 M13.187444894182072 107.49260732073157 C39.67148210858723 77.03002175342084, 64.80464638942334 47.10283077825575, 105.74360531148446 0.5580996415463702 M18.385194069643546 106.18241046095433 C37.17864781661797 86.08226593859106, 54.95102799124852 64.13428677221691, 110.72529802084334 1.9862275431598206 M18.220641861607362 107.08277634630146 C51.55095676778363 67.99304818180875, 86.87498713250912 28.360562144142122, 110.78905127182968 -0.5805940953349094 M24.835460593670128 105.75704820620533 C56.40903941983197 71.55725475410028, 87.67090477515053 34.9000365567462, 117.48536397535207 1.2692720732234406 M22.77886682164621 107.91907883974429 C43.88420122596875 83.53965988291128, 64.4494815001702 58.45309833760246, 115.77853943798544 1.1420288486920285 M28.04907879427261 106.4605639276752 C62.2907459696315 73.3391055590264, 93.05773363537081 34.82071760994863, 122.69028443004271 -1.256203096564633 M28.590895271005103 108.4837122818181 C52.40130576882102 79.43199284155446, 76.03910927864129 52.065158558330566, 121.85824114362975 -0.8176815362831178 M33.994660870057 108.41220057429337 C52.7747765465941 84.84262992645311, 69.53152789390087 63.75821539496703, 127.91099796755924 -0.05367919638383256 M34.49020757235254 106.94706708238982 C58.970280487630504 79.71067226369647, 85.15095614747763 49.988068937667386, 126.5616193854691 0.09278473049771918 M37.180645403667285 107.21097691588042 C62.58974695315281 82.50853249647204, 84.43157941956227 56.039057739093444, 132.7567417865077 -0.39453827730470437 M38.041516722395016 108.33040322221754 C73.93742841473349 67.45016122777784, 110.62330591976138 24.64876632953431, 133.276842026172 -0.6358694410985066 M44.1537695937095 105.64801090136578 C75.39131694204016 71.33443102654245, 108.63835986325577 33.96771572262196, 135.87657946953206 1.4296134304932622 M43.66424058380106 107.59317361116817 C74.99137209995979 71.86821924038041, 104.23695409105679 36.58465323282019, 136.87330956244497 0.5879284296862153 M50.50059702282759 109.49419630057002 C73.78043100648412 78.82001335125959, 96.24826184368928 51.65585951485968, 142.45787321523832 1.819268875939585 M50.259029653277125 108.7957007299998 C83.85131245439177 68.65798413490333, 120.0322229476647 26.81995851209051, 143.82512735695647 0.5439437527189028 M56.34598988962761 107.2125260624226 C87.01469889206405 72.01385426670272, 117.66493126419499 37.45961786529901, 149.22781160627048 1.6546968288547532 M55.331239293491755 108.18649998857936 C76.24120757879868 83.04046371206266, 97.04855554341714 56.976770798431964, 147.837633406413 0.3628115087575452 M59.35463677675353 109.745768956744 C89.84233438317733 73.71318752766382, 117.49989317780945 42.28984452176195, 151.95188184123458 -1.9917347618317507 M60.61745750115143 107.36495636766486 C95.54122143951417 66.28903696768285, 131.2167664156168 24.576109348115125, 153.97087057348313 0.6133596076691248 M66.22952488281136 106.22879293246375 C94.74771323909808 72.43919722297423, 122.61649256308257 37.789871039550434, 158.43539750277455 -0.06788212629939494 M66.20897713892465 108.36864777712331 C98.24062340001922 69.41193460450623, 131.64539867656947 30.121303278481918, 158.26611435487325 0.4652855302116734 M69.71346779044508 107.77624175940235 C95.34867280647657 77.66847924516026, 120.84050137587143 50.973127596136095, 164.02197078949644 0.17049768438128865 M70.1783237035179 106.83602169771274 C97.69241940590089 76.53881571868106, 125.20167430307362 43.88094622247324, 163.86934511325194 0.7764796862521592 M76.08757769826073 107.19485838648929 C95.79834810445651 82.6176595060772, 118.06015314068873 59.746102337173646, 168.59504028404422 -1.052576559969168 M76.70272755759973 107.0937185393001 C95.59977645187575 84.49658377609187, 114.2433601110655 63.407415839798695, 168.65777584532566 -0.7442979434513859 M82.17279318890226 106.7711615835451 C99.91269089957262 86.62240354405364, 119.7956677350976 63.98182883739645, 176.07634318502392 -0.3209869104212828 M81.69065169787658 107.31924828264344 C111.4577497647599 71.93432616224865, 140.555960094393 37.28005687363854, 175.36332441376294 -0.4500944490319796 M86.82835146097571 105.9837692994992 C116.51576691133084 70.84087888409842, 150.05708858517633 34.8818966129178, 179.4274430750795 0.7611604028454337 M86.90526398701698 106.6283138376097 C105.70683184497878 85.68684788220955, 124.59193053594525 64.30185033151133, 179.19914131527025 0.4069126502683673 M91.95331609712507 109.2910753041722 C122.5046009844771 72.09123746256535, 153.07946569485838 40.95974478512318, 184.14820215281705 -0.7181416712394935 M91.59096492172743 108.23748768495695 C112.51376818225256 83.42551747783308, 134.39589274186625 58.3310989944892, 185.98308191251616 0.7627387643166799 M97.98504929595634 105.84357254649349 C128.3769279307993 74.58010695879095, 154.98877812145838 39.580732552417004, 189.27830900088048 -1.1911243628555894 M96.59685986467645 106.5515352345521 C126.303427948982 72.83708235421335, 157.12514478211133 38.96862381229124, 189.7642342022071 0.904268873870933 M100.90073964011351 109.27152979628367 C123.7645525677598 83.26245366014402, 141.85427740589557 59.34855801985807, 194.8957508178758 1.1020802769266709 M102.0032868125705 108.32609146715326 C128.0848367279507 76.95649698647085, 155.22553195981772 48.25154499694368, 196.94639104701156 -0.4434191112018482 M107.71587432820257 105.39731500247217 C144.48866595131477 66.29407376861471, 179.85154482066844 28.261334805270593, 203.11834118644703 1.9011160179277766 M107.24528862807807 107.75498429262734 C132.1167528159127 80.41943224809404, 156.22573466898965 52.991147320698055, 201.91457794363606 1.0456222898563254 M113.48576694286756 108.02307193487952 C134.29646634107112 82.02553363395387, 161.36764533474417 54.3257924189939, 205.60219230520016 -1.3622741909227898 M112.73914080790571 107.63291119173239 C141.6020909275053 74.77064423720824, 167.77925413163095 43.14726607023789, 207.15852525474912 0.3855334869124363 M116.14797065372395 107.39775312265799 C147.13131409227682 72.56543181403723, 180.852511886174 39.438175958192446, 212.5432427567792 -1.7765715798044965 M117.3497646857314 107.19747215455816 C140.74114435567319 82.91625552642343, 160.78348629913646 58.85886701358847, 212.89919597705722 0.44132446072451614 M124.80410113038724 106.23124859495977 C155.29595780918552 68.72747403927659, 189.00046651700495 30.06848344340395, 216.17572973979014 0.7618418002121388 M123.29755034523313 107.51829842119434 C142.51789625172077 84.90387137816154, 163.12607348620858 62.75171056887166, 217.21225797322887 -0.9838018788404526 M128.00165945550143 107.7085146216054 C159.4844845157753 74.8581066345033, 188.80708094381578 39.729233711339106, 223.773716836877 -0.6636402810523947 M129.0651795331174 108.886181222399 C165.00244475495904 65.72138759550415, 202.18130746177937 23.724328938994233, 221.6546117399706 0.014226948975519349 M132.57644532767256 107.95660665152437 C155.47209491856688 82.21707916387865, 175.95203841503832 58.21277661743813, 229.14956624664578 -0.2775248746685719 M134.86503886205276 106.6551047180391 C161.70301394343198 75.97094269340738, 190.8300961539777 43.627529555127694, 227.38786263995084 0.5276763540394569 M140.65408482954456 107.8323559545372 C164.9037777349454 78.50092359011428, 193.79674663952343 47.6714685725537, 233.65546655174046 0.17545678918409635 M140.26574757874562 108.40492263887268 C163.8285796736486 80.7419112451625, 187.61995672264624 52.90314009073612, 232.80484866987615 -0.0003186828906507344 M145.1485026597235 108.63469297957334 C176.9622656575305 72.15880361833894, 206.75952748505034 38.4879944963718, 237.02584592177652 -0.10261776034214165 M144.31562979586457 107.02868164476666 C179.66798626913442 69.16290130011112, 215.87577776034118 27.782289940249186, 238.99705366342448 0.06627932827494476 M150.76344990085332 107.89232399645337 C178.66656206646937 73.8073849098304, 209.40885964271286 36.859075174975246, 245.6591950263695 -0.9487334940950518 M149.16924226011602 107.89529796647915 C171.39171586516528 84.39930300822701, 190.74423551601902 59.91340412773237, 244.66143020427387 -0.05446087237402253 M157.49097625154002 107.0760544541067 C183.65267774237435 75.23227922700445, 210.3856156865825 46.588923171221495, 248.89988994816338 -1.2248091422541023 M156.2108465841685 107.93688076387704 C189.8617783998358 68.74506131920282, 223.23489856984912 31.286785334788362, 249.0072225391308 -0.17331055407952078 M161.61295779442767 107.38646562235391 C187.56365826871894 73.84014280927104, 219.0491710495596 40.59270056939374, 253.88060538576417 1.649335744110175 M159.68093701472858 108.81140876771843 C182.38773233788606 81.78532517679741, 205.74620074411322 55.53263701748006, 255.22337978066378 0.7121519430254182 M167.19956922812221 105.46623795012442 C193.56156468691714 72.83478187207604, 222.55178978480797 42.387808846124926, 258.52384242181586 -0.5163425651817022 M166.7997126644647 107.99005363787023 C197.47404299057413 71.74514301060191, 229.20142861103454 35.651221157271394, 260.1050836755793 -0.41978215030118804 M171.11081163526768 109.18782770723884 C197.26744660057534 77.1179403248849, 220.83651590007585 47.41699706967769, 267.04040075492446 1.0302113787998053 M171.39360528008336 107.91985660509054 C190.9289192156499 85.61630899058919, 209.78444009584348 63.58266223565716, 264.17722083654587 0.4723713258076998 M178.49498471447004 109.36579034262654 C210.67367494221003 66.91615241730709, 247.55106479018104 26.92157947010719, 270.930906467734 -0.22917115412488442 M176.01875147425307 107.11105182924625 C205.50929296206743 76.28869067484068, 231.6746654011243 44.626877197085484, 269.32091051027004 -0.34403389789000016 M183.79021454837329 107.54445712610811 C202.20245619004922 81.20030530832132, 226.7101143176019 56.29001024151676, 276.48428425885044 1.6294402849737537 M181.5875204936803 107.29974304109544 C214.2290235954519 72.69275311692942, 246.19569436277467 36.219821257375784, 274.8969768094202 0.7115488384727371 M186.22292583558348 107.71025850661303 C210.64882861468817 83.87513376113083, 227.80818900406413 62.45884086743845, 281.77928521091775 0.7597519659162799 M187.49198645103363 106.53522690050508 C220.93499334840274 70.11474172276752, 254.74415872352475 29.512626552532055, 281.3724764807029 -0.3044642343460282 M190.80936965874452 108.07940075396178 C223.6747756656607 69.10285643205907, 259.32227036931465 33.413790913679335, 288.182959022542 -0.742430662367866 M193.23045609301943 108.34266963823316 C227.233157832055 68.4854419824165, 260.0716128072195 28.85986786632708, 286.4441711367867 0.22753604352064372 M199.8540957164625 108.81018931708387 C231.8389243749901 71.39061044502665, 264.0570330441994 34.16235595436673, 289.3521817763671 -1.0515263300581807 M198.53094103230632 106.8104304141467 C217.50220806620837 85.83462941419582, 237.614128127003 62.714994604455775, 290.665055024378 0.6530284028307562 M201.9514800913814 107.79070546579985 C237.899127267928 66.05138517252003, 271.7755814903308 25.742559144239877, 298.73212817099915 1.1001454117748608 M202.97768551560077 107.75273795900372 C238.3048300522526 68.4256562641732, 270.9989365930151 29.12940266854909, 297.56782725614534 -0.8693154965486656 M207.48419748210722 108.35112964903911 C232.45950289498023 83.32537735846071, 256.82346547175723 55.89658214899898, 302.55779928908214 -1.7899591670482664 M208.13463865557128 107.79701393267115 C228.53443199980774 83.23513152660809, 249.184753550823 59.44879521498832, 301.2914195787953 0.7950455761403532 M213.6247489712839 107.05141813662223 C232.28873153675312 86.72777382695551, 252.20266785847807 63.47454025435163, 307.352494829222 1.7177153824019626 M213.1719821989243 107.54654956590704 C249.3824288977372 69.81658794111235, 281.6894070701352 29.94667613243513, 306.70446860499624 -1.1561542192351624 M219.8339342575175 105.3936263774787 C251.47675900272594 67.52541131328553, 285.6331291796179 31.68942216243343, 312.92934087406275 1.792500329946023 M218.98960275832837 106.66782901857839 C248.1387589160652 72.29135989811698, 277.47088469960903 39.35253274046984, 313.0318435814547 -0.29931115191723734 M224.86237942345204 109.60958564142905 C258.9818837696787 68.34794987887796, 290.81932531080884 29.960531204935535, 319.8897621222104 -0.9541738754865605 M223.84361958049 107.05320602144323 C249.50381532678892 77.091313231414, 275.50435757637774 48.77956152621078, 317.97811862083927 0.10237143796115333 M230.24900916769343 106.37322637740269 C256.4959811586835 76.31326267567974, 285.21119305858355 43.1293843356399, 322.625009656309 0.31889903592468727 M229.46985677807766 107.90822723436847 C263.8965334797167 68.7096333438129, 297.5568459053371 29.16377079114298, 323.35410046985635 0.2615597811579846 M233.32257457288574 106.58825485522019 C256.4187093899857 80.7210820675953, 279.3949748786701 56.44064862118501, 328.81463317496446 -1.6049754868907087 M234.71037109779786 106.91430888811217 C271.44218486859273 65.01441813504408, 306.6171521499399 23.677792471710106, 329.2003007411745 -1.0458869624597185 M242.0440663086445 109.85518610403383 C262.40552821205455 81.5600830442016, 286.7149998015669 54.21252880310996, 332.42800876082083 -0.21271617411224497 M240.98086512332864 108.07076972276414 C271.0627312585303 72.30859606538162, 302.6491767018492 35.41194027183981, 333.41346368150016 0.6817599378660475 M247.28853754458513 108.48547265299575 C275.76639323516434 73.26833868410844, 301.31077436745926 41.21614714475051, 341.2228111124841 0.45085742318951816 M245.17751018834795 107.08395972841399 C274.7803406815357 74.48179722852393, 301.27101744207243 42.99623171100153, 339.8700384035019 -1.2405778579977778 M251.12692686335168 107.51563327192653 C283.51159068073986 69.22709271528053, 316.66937923309763 27.68437279102602, 343.77836422562683 3.834830315503467 M250.58376928956233 108.7563888858198 C283.74010561203954 70.22338456162271, 317.67173688900004 33.43898612118538, 342.0845295669147 2.742019621375192 M257.66847146355013 109.17428590975568 C283.079894029774 77.60142468371484, 309.1428426119428 43.74828094567523, 342.9622907118834 10.330386692427396 M256.33781028964023 106.8287601048486 C287.00710077315085 74.45881487691179, 315.55216865505355 41.30740036028344, 341.30114669743546 9.247665276520252 M262.0622349278245 108.66982433630365 C289.85694261661024 72.82918733447985, 323.672814125613 37.771827973152426, 344.1486888858218 12.756681181999625 M261.05903368528817 107.14264586625832 C283.10368949558045 81.04610077889882, 305.5021437389234 54.939373012350956, 343.33698127369473 14.81853619641322 M265.99557945478074 105.90274150049996 C285.6177026456657 86.69947665587627, 301.99290738380034 64.33749231304611, 343.62724733008616 21.431482554040713 M266.97154483917467 106.727811579916 C293.8096150207323 74.74822413578264, 323.5513060832985 42.258939723931334, 341.6161212923991 20.366517361812157 M270.6956936270629 109.25330617216514 C297.80556235342664 77.1037272826662, 323.1181537074293 51.365223653267876, 342.72595324328245 24.864658757480157 M271.5306817480062 106.96489222657965 C292.7819586798246 86.55325447628664, 311.6799321934514 63.43962469954863, 341.917359616217 27.24168668258406 M276.42806464327697 107.29388630022864 C292.4765002701639 92.22815767962288, 305.57761451325496 79.27280608222594, 340.8126202080546 33.54585356213843 M277.5464872744513 106.67271571611623 C291.52420038852404 92.66904485758275, 303.2917637015258 77.83903529691732, 342.000721741855 32.3949916394869 M283.498006086067 108.57662565451098 C306.9496511235721 80.97323198050566, 329.55867568448144 54.82098399282658, 342.1373013940182 40.4115194971678 M282.8102369152165 107.27097952928376 C298.6359779531883 89.91936518091228, 313.16188982888866 72.7117905093605, 343.074879002991 38.22028222261045 M287.7491301540389 109.34576718394166 C304.8283026324104 87.83773215894064, 321.95505492485455 71.72467049886916, 344.11411247078865 44.8590465917205 M288.21791103297016 107.86757407594925 C307.2503251052886 86.18443892029265, 325.18827074978236 63.88998740980182, 342.703971483303 43.943439672044434 M293.56487542983666 109.32532965834122 C305.45020300281163 92.07260143759807, 316.91274714550553 78.39703706158336, 341.6030545210101 52.760891115617085 M293.3967226244189 108.42125933687072 C305.692824999201 92.25545407582725, 320.8490146569371 78.06552348716401, 341.71443092949767 51.011505218546915 M297.36697911206636 107.43143102663909 C314.177756359821 86.79110837677801, 333.41888205598735 68.69299979262958, 341.75242724328837 56.93160851778697 M298.82858955223116 106.82898822191511 C310.8789631758791 94.38025049580617, 321.3558457536433 80.85713135426937, 343.66239395424327 56.934713021984805 M304.61700478337195 109.5599650586558 C310.61351335018423 96.53959421399799, 321.04888277810954 86.92093156119569, 341.0003567202676 64.91553006805071 M303.4766623131135 108.08858321184046 C314.04438570970194 94.34040003477915, 325.73272468994134 82.20071340838524, 342.46022980424647 62.449166813116165 M309.31481464235947 108.29892470332089 C317.83719840034973 97.19792250552733, 328.6144538896072 86.79714567617022, 343.9172086215632 71.45379579556058 M308.90879626973435 107.38605971651378 C320.6994512450185 94.80045361080929, 332.0021667134574 81.8757095499756, 341.8439535631852 69.35887283203076 M315.00009727167287 106.7160787304548 C323.60922971170817 95.20955155372255, 336.7885942754293 82.16798997514327, 343.48741111679067 74.49848322946875 M314.92407941880026 107.25830271669304 C320.4021803868111 99.85623484313237, 326.7760764530632 93.46583696851845, 342.28004906473745 75.92486856881825 M318.2508398699182 106.07129508898704 C326.83390709522894 102.34960221624856, 330.06684919488663 95.2427998374864, 341.39127778859415 83.22673613959577 M319.6763046229797 106.68039012224524 C326.5291126314373 99.19904794288692, 333.86585500073005 91.94900940033703, 341.87229180560985 82.25435150423672 M325.68485601973947 109.60421754873816 C331.87845266807665 99.94641233221178, 335.0930149515503 93.8004184417356, 342.84742083557944 86.50779747487115 M325.3004973789793 108.22826941392843 C330.34678103642597 102.81905836039611, 333.67666582368645 97.19449362460283, 341.8291621484707 88.14271204815316 M329.58554148916795 106.35176878944037 C335.48870183862323 101.25026427240003, 338.1833765354509 97.81237594266771, 341.7068665699341 92.79297879686938 M330.1058586059202 107.17931153811512 C332.7478011424026 104.41520945696902, 335.41926983120607 101.6759188868926, 342.13535139460646 94.18395055545852 M335.99254658721514 107.03421106523245 C337.0796714704024 105.91067720598103, 340.6191140679759 102.8035675724274, 342.5556146422035 101.091313599606 M335.78652432650455 108.13366430400282 C337.3113339102406 106.0054457841138, 338.741970039677 103.53721043604457, 342.53649138785966 99.99270316678746" stroke="#fa5252" stroke-width="0.5" fill="none"></path><path d="M-0.5154823524437696 0.8173811867988855 C121.63618673292532 -0.6548559319672868, 242.42534233579624 -0.3099151760874077, 339.8057878855852 0.5588330848096162 M-0.540870717515789 0.5468467953505144 C133.54615527611483 -1.1010371905788483, 266.7051301517416 -0.33039576327815656, 340.2917175605529 -0.2247625465267077 M339.77643231302494 0.16418202966451645 C341.591185202375 40.30963212624193, 338.8084844253212 79.14681653678419, 340.37242177873844 107.17168148607017 M339.6788824014365 -0.667600255459547 C339.68891614533953 22.400981523096565, 339.1914744959026 44.851296242326505, 340.90396467968816 105.27905322983862 M340.2689884126385 107.20959447736534 C266.17972455786503 106.21375130335875, 190.62150903992926 105.78344493201084, -0.6207096068092138 107.05222571244272 M339.4648851160456 105.73869263867662 C219.79210490821728 107.106362144212, 98.48152296177969 107.27600522619103, -0.5384335276842938 105.53372115145943 M1.9128883257508278 107.03237231820823 C1.6581458076089621 74.7829052977264, 1.6958643420785666 38.439528059959414, 0.5795107260346413 1.5622564181685448 M-0.24654241278767586 105.1511923260987 C-0.8530004549771548 75.50108865499497, -1.0295726586133243 46.08257144019008, -0.23853929713368416 -0.5304119400680065" stroke="#000000" stroke-width="1" fill="none"></path></g><g transform="translate(840.5 311) rotate(0 51.5 13)"><text x="51.5" y="18" font-family="Virgil, Segoe UI Emoji" font-size="20px" fill="#000000" text-anchor="middle" style="white-space: pre;" direction="ltr">Receiver 2</text></g><g transform="translate(10 177) rotate(0 170 53)"><path d="M0 0 C0 0, 0 0, 0 0 M0 0 C0 0, 0 0, 0 0 M0.4801850162772586 6.191059006800048 C1.3855530872871298 4.570807903320046, 1.9939612855306157 4.3320540633065265, 4.378181078615135 0.1182002704438978 M-0.12736782353835802 6.20792826717078 C1.4144238266182116 5.057727357193862, 2.51020460924447 3.5643736626777565, 4.7583153020166815 -0.022701913506049498 M-1.309369163857807 12.421270013272345 C4.082400961973464 9.904669158208167, 4.5497512528091635 5.400441538862561, 10.270088536989821 1.542379933138168 M-0.44895346974026096 12.747240761339247 C2.8066194985894475 9.753098008075252, 5.24500967731611 6.981966645197058, 10.68463507140888 -0.6818571244284748 M0.5982101307669421 20.36153913186925 C6.173922267345704 12.881678755374992, 10.71160384670141 4.00258200654317, 16.224684327378352 0.7751322171580961 M-0.25192239792554183 17.614246616978818 C3.202481930142309 13.348352472812081, 7.169332904194316 9.306761590791206, 14.915050889834244 -0.5405314744520018 M-0.4978857634403493 24.516670157848953 C6.866912578347157 15.056331910345575, 12.30765005820986 8.504088339492291, 19.35199810405996 -1.9022971266717192 M0.9488294089398597 24.9047561229161 C7.913916954783324 16.911667378083667, 14.346590584494676 7.767101856767965, 22.15128130679753 0.29718221856052907 M-1.7667414312670573 30.764866782117835 C5.377418394682585 21.584556369422657, 11.566923851139547 15.048899660069155, 25.152011091497155 -1.3360261065873562 M0.9379687505354539 29.830052571136704 C8.54843227429147 21.769386282470045, 16.16974103019142 11.851434653303986, 25.70043539130351 -0.3466501539561211 M-1.5876982343476733 36.53916356507813 C8.787473959758985 26.692574171621672, 20.966196924327427 10.689496971978993, 30.04987845704595 -1.62116724240936 M-0.5541045238357505 37.14116368610536 C8.739532211912724 25.514156059969295, 18.589453139455017 15.998910760092318, 31.4372532716457 0.3485083022400026 M-0.12916003431668344 43.436657567132045 C10.29443741987619 30.57276931055663, 22.47972767184129 15.147645033704016, 37.807456752100336 0.5800677669328174 M-0.8399593148707396 42.44458594228678 C13.16058436228735 27.19801459303683, 25.837963138417322 12.886411407419263, 37.694270210155594 0.952501552281948 M0.4332297202198916 49.73263708935015 C16.519448650157514 29.355685365960518, 31.36801650913143 14.023555517514012, 42.521776144016314 0.25069140161862435 M-1.1183103602380342 49.341413304814026 C15.31899316360499 29.88454546513988, 32.65821975702508 12.081799006669982, 41.63528883512669 0.6218039904116637 M2.2590011966180654 55.34761461191188 C12.43548839744824 40.44003748656905, 23.47722133792123 26.81122825722298, 49.12656818418789 0.3066169627186106 M1.2433949683558794 55.01937016792904 C10.138057322662261 43.1812181136024, 21.850083683748515 30.06838232739159, 47.131906908890485 0.012197081762199247 M0.34438594627182795 62.135003435887796 C17.066353397148237 38.4269868988295, 37.50911185156237 20.657468976190344, 52.390738039971055 -0.19101806958776635 M0.585504433242491 61.16548799676488 C17.386082156887163 40.04797098027228, 35.75828447645788 19.271807240617925, 53.136989559740485 0.11609272057551223 M0.8647301075466842 66.84815062168012 C13.561619093434846 52.33375265741104, 29.171301950329916 34.31543847851186, 57.41989226275982 -1.748175394229964 M0.6735741337248058 67.55813826578627 C18.579303070441483 46.27072568118688, 38.63091756577739 23.28712403719443, 57.56119705000819 1.175209871984645 M0.9563173188081393 73.65446572969107 C13.034435082958584 54.72318081324128, 27.678910676193627 39.08253298068162, 62.65481101991017 -0.22559253102853205 M-0.14480858089417126 73.20616119945792 C23.095555709453595 48.57225136851535, 45.71427309002976 23.03443252219664, 63.646457007987095 -0.4821020697684517 M0.4981916314501831 78.6495495609912 C15.070927919126108 62.16134482977594, 26.78700859800611 45.3776593356074, 68.37297586281612 1.4488938210870757 M0.21679780171704977 79.4879945129129 C18.339709911987907 58.99168760312966, 37.53801911051661 36.21833266250815, 67.8424921960087 0.4718133604492678 M0.45457071282882566 86.82422709575997 C27.600618736640065 50.72476143382771, 55.364334655153776 21.123924577668333, 75.68704195883366 1.4926711422963308 M-0.698897840148021 85.74370635039315 C24.15952366703522 58.30471687759927, 47.18980033192121 29.444751163137454, 74.18029274236652 -0.7987569431202246 M-0.6236263856619431 92.35222413506791 C30.130437057082972 56.719644447175234, 62.59077821869151 19.832755966701654, 79.0463658593568 -0.443972266330249 M-0.01639149415789376 92.18767192703173 C30.136904443938754 54.190214362692885, 62.835641218108215 18.191308881288634, 80.14864390939204 -0.38021901534391134 M-0.25636602565661804 99.55720023931727 C18.08032684440825 75.70179271533739, 40.80297808277844 51.71426790765758, 85.23547773174153 0.9344760753868115 M0.19002918899043664 97.50060646729335 C30.240433768600877 63.724461637374894, 60.02215203461649 29.29863541447014, 85.06759832537875 -0.7723484619798171 M-0.2526770687896942 103.42687746891025 C32.159069272736915 66.77577162479267, 69.26505735808097 26.815517704914555, 89.87560912738184 0.8564294685180442 M0.053107808599975215 103.96869394564274 C22.558572725152516 79.00629469785446, 42.756168027008954 53.73851738661005, 89.96500375265816 0.024386182105089915 M3.0393491233043406 107.8630403842491 C24.43681513855401 83.87689354577569, 44.05020077201833 57.76931085735058, 96.42316521363378 0.6955253932429173 M1.0376192139737341 108.35858708654465 C27.87554432328314 77.0723445528202, 55.45365524255504 47.55112986791433, 95.94997531952382 -0.6538531888472221 M5.7946767469720015 106.42211688529049 C32.622081976410975 79.46093805243797, 59.41455459995683 48.855028819546625, 100.67125254189128 0.2583021506319696 M6.377487562395729 107.28298820401822 C32.932199837987795 76.58419811009963, 59.70732214557161 46.61804227424589, 100.08942328830713 0.7784023902962858 M12.556794295626268 107.35756443355052 C32.907865661194776 80.84146156298407, 57.77287118068719 56.298452076781395, 105.74815127951038 -2.003477779135345 M12.296255058216438 106.86803542364208 C45.70244513966722 69.16980907608817, 78.48963581272557 29.314131497028995, 105.78152528730166 -1.0067476862224325 M15.892245820661117 109.07748383009972 C50.34296622205113 72.5067520762298, 77.84078448648532 35.10873499371597, 110.61884297788508 -0.7051510949884872 M17.03661321376734 108.83591646054926 C54.72447587418597 64.60301860133089, 91.65565526087946 23.008121821929123, 110.6322540788389 0.662103046729662 M23.45274898943257 108.88520005511756 C56.44115778109241 70.19057093662526, 90.2263213344398 31.499671013629808, 116.42742377538087 1.437879263474791 M23.297520907341955 107.87044945898171 C58.95576738049847 67.49572592454899, 93.46553565147202 26.926921231061087, 116.17279076222184 0.04770106361731763 M26.476722853334614 107.2669389096746 C58.951629391202786 75.42816184910751, 84.47275980135048 40.76426914518399, 122.27892731036326 -1.8757271433433118 M28.11073215127177 108.52975963407249 C46.166046079225936 85.49829941743666, 65.63405703933162 63.10443367525144, 121.01634768675348 0.14326158890523288 M34.78776007972325 108.10415037395023 C67.22651861632195 67.46621708123472, 102.35241400072039 26.06661120016453, 125.02114763422622 -0.019119514372228252 M33.214268323850284 108.08360263006352 C60.60448993547119 76.24470937731019, 86.12471865953717 45.71487570993029, 126.01499136476531 -0.18840266227352487 M37.29615471999247 106.96118524901507 C69.33810786481705 72.27810004264408, 98.09358736976853 37.50328628148051, 133.5870524143258 -0.47022286943250435 M38.928945937409 107.4260411620879 C67.5654130803926 73.34352759831825, 98.70048303376791 39.26817229236475, 131.97705567455085 -0.6228485456770017 M44.99737444149831 107.29761851504853 C81.69564651189762 64.2687545815047, 117.70417116780479 23.81540588084087, 137.49631070205598 -0.5240614074536296 M44.53184887024143 107.91276837438753 C67.2212218588866 82.38703663956875, 88.78420607876737 56.55798818056415, 137.54366962844162 -0.46132584617218697 M47.47358829563471 108.75592597312118 C68.73306091017854 85.50759109331236, 88.61382834539774 64.40996572997162, 141.85376516477274 0.9195648517439139 M50.132856134679045 108.2737844820955 C76.22040963070933 75.98362967928269, 104.1540139913227 42.92805003530356, 143.56222960473107 0.2065460804829371 M55.89213894975773 107.37380760341247 C78.82213652461115 76.62851498949442, 105.4982913656103 49.6112837790942, 147.85095985387008 -0.35624329076938466 M55.04811410901538 107.45072012945374 C86.03118694483217 71.9481029632282, 117.73603841546378 36.47159117873595, 148.96292711575072 -0.5845450505786403 M59.507070455261335 107.87186420699291 C91.76092359741938 73.37963287082559, 119.17780404336646 39.046116828715114, 155.76461243670406 -1.6731608548140429 M59.67656430558191 107.50951303159528 C87.15838203971438 77.4917214964623, 112.38134511722949 48.359495020434416, 153.1322210397941 0.16171890488506335 M64.65760047950154 107.865920764042 C101.21106471044764 66.36073409559174, 140.07440712271898 21.170973898633108, 157.45814196466858 -1.169962039319529 M65.87341560267215 106.4777313327621 C86.42022984294721 81.14845771319848, 109.25746224367313 56.882699272117456, 159.78936538919265 -0.6840368379929203 M71.26964807387232 106.15470307563027 C108.49405502249667 67.97204535271374, 141.6380147884796 24.962191567264483, 163.38014110511972 -1.5901968641063746 M70.82667201261758 107.25725024808725 C106.05397848888984 67.54154605536442, 139.48470970286422 28.811170970119306, 165.35988154223992 0.4604433650293771 M75.85430590572972 106.93216112193717 C99.81420191427647 78.33294769580316, 127.18576379275561 48.36636583901656, 171.06590390945144 2.005485471895952 M75.43060491371173 106.46157542181267 C113.58389939057228 65.80129189743585, 149.05247207731975 24.42498412035829, 168.85208601126737 0.8017222290849872 M80.00936802646768 108.07514570403326 C119.1598936567752 62.51197358994426, 157.0787364104438 23.108317580433223, 176.13589804501976 -1.5483400511330672 M82.16228081828606 107.32851956907142 C104.49491957059021 82.20584798835235, 127.02107320641701 54.472739658939346, 174.23056267456855 0.007992898415892569 M85.41780210344226 105.35573180209796 C120.33557761898848 66.46688402547736, 154.09347121349882 30.32263352443691, 180.79729256321866 0.7658023678770576 M87.45503360463411 106.55752583410542 C106.26525997144505 86.35299922955016, 126.3009339189276 62.883104242633976, 180.2926905444749 1.1217555881550823 M90.34927718804742 108.72889521720187 C121.56519728539305 69.1636315811002, 153.71368372397623 32.791430011215596, 184.8424301314042 -1.639387290894149 M91.57499228508736 107.22234443204776 C126.08631946450214 68.8192231196793, 158.6861838041227 31.829546512500883, 185.04211599928 -0.6028590574554187 M96.6586359476392 106.54483592952438 C118.9692913041916 83.18940189491374, 141.6156272556027 57.77294204426893, 190.15035480097032 1.3316917736237883 M96.99455323793933 107.60835600714036 C122.13785779583276 77.97511090954401, 145.99439219638734 49.51336693679089, 191.5652805513153 -0.7874133232826352 M102.28742243361155 105.8366547401361 C131.70086183695315 75.31993710092195, 158.25411758762425 42.382212344957026, 195.68528423927302 0.6698645416103943 M102.26890797552149 108.1252482745163 C130.1859107051791 74.16098571210986, 159.94349132476762 42.523039809027324, 196.4048930788743 -1.0918390650845424 M108.26235431332049 108.53267662921644 C144.51832587968238 64.66551434208877, 181.93481906604228 25.387702600855604, 201.9981374977063 0.5488568141361583 M108.40951537612733 108.1443393784175 C137.91508229072605 74.62823169174618, 166.7246669198459 41.44518513054703, 201.43645759428847 -0.30176106772815103 M111.19685063816003 107.74412739783595 C142.18628615720897 76.9398633405042, 167.589921448323 44.237142043922404, 206.22500724362618 -1.4623814286194374 M112.7606294520884 106.91125453397702 C137.8809393836895 77.73332403758269, 165.34406005523735 49.53606828942276, 206.24174547585136 0.5088263130285213 M117.63344504649567 108.73216660639689 C143.30698916073854 77.13281929562234, 169.36761517879881 48.24197134845866, 210.58868752842665 1.888000614414139 M118.71671255270766 107.13795896565959 C142.8804994354671 81.27620299559992, 167.5415341233213 52.53440885180452, 211.98532323589444 0.8902357923185065 M123.8256086766929 109.42201631530145 C151.5371272045617 76.91945243855734, 178.05735653689234 45.069504078557415, 217.39714601946372 -0.25292207658363 M122.87925827728813 108.14188664792994 C144.45960403279142 84.10007635469545, 163.9448547091771 59.87043311224212, 217.78802475271124 -0.1455894856162132 M127.5195730801457 108.91708982562018 C151.69622999580923 78.8183862919463, 174.47593095495256 54.22850447640684, 221.5450517681314 -0.5551737005422552 M128.2136143881613 106.9850690459211 C166.54021176267145 65.14274669222945, 201.65565820292235 23.855160866130802, 222.60347903863325 0.7876006943573515 M134.29674342421015 108.46602461753255 C167.8193024831287 65.13610795577472, 203.85635253023398 24.408989407484555, 229.51224744178566 -1.2935542772822117 M133.7663960136207 108.06616805387503 C158.93763208518942 79.47000056578798, 182.36189334350595 51.96076952203176, 227.59158247195396 0.28768697648122554 M138.07522626028015 107.75035899210911 C162.53017311718332 83.30801044318686, 181.19583253950947 56.190044290761655, 231.86527709182053 1.9400369942669897 M138.54201341599776 108.0331526369248 C173.92285249203636 69.23590513413001, 207.21539281051582 29.660035145111465, 233.99502656500488 -0.9231429241116018 M144.10830175571178 109.09685542952928 C179.52706631090712 68.01287484410017, 210.16713609755516 31.605551417017864, 237.59979935660147 1.2036346745075974 M145.87614422358607 106.62062218931231 C170.50857997033867 79.19300552381794, 197.5129517594311 48.548404956904285, 238.85671116708897 -0.4063612829563823 M149.48595146189896 109.76517723086366 C173.07798090818684 80.58659390733487, 193.94649605271758 57.49721468969798, 241.922410374494 0.7193358238418455 M149.31226119871704 107.56248317617067 C185.60259358419916 66.63676074493574, 223.07002102409797 25.126383613739463, 244.1765673775093 -0.8679716255883818 M154.13333054619773 106.16021187629164 C192.76002815440683 68.81781605426976, 227.53864445600303 24.31460093342986, 250.03246669689213 1.3874287433402657 M154.9751044696842 107.42927249174178 C184.61005300646954 72.07148592397851, 216.9008656735439 37.02896987014668, 248.0683804585973 0.9806200131254315 M161.31229556000213 106.11974766688382 C183.71272686760787 79.57610778999698, 205.80112840152412 55.8774470795716, 255.46449849115186 1.7534259131823262 M161.4472092988191 108.54083410115874 C186.0666794106695 79.19641110639837, 211.52355808847886 48.743569780488365, 254.4772030386465 0.01463802742702569 M164.6198766706681 109.12679708281962 C198.92401540802578 72.08616315969499, 229.99160499700253 35.17782691205532, 260.58973730866717 -1.7042593655614553 M166.1423783144152 107.80364239866344 C188.94254450992557 81.8729613010722, 212.2122462027516 57.16233314663675, 259.0558828799884 -0.3913861175505815 M172.4898054295897 106.59727342516963 C203.15009203713635 70.30355579584996, 234.48895193614374 31.998250032002304, 263.6145883167941 1.6380103872884604 M171.182209278804 107.623478849389 C204.89799030172367 69.11781427818207, 239.33375610881944 27.971344085250934, 265.53853511091654 0.4737094724346491 M175.19098700412286 106.09231417411324 C200.32653057259506 82.71862496786602, 222.92405959435163 58.850814144343914, 271.08215806692664 0.8367734728024914 M177.769567320279 106.7427553475773 C197.20306099320686 85.17783057007894, 215.65357620108955 63.806662074732465, 269.6170699937624 -0.42960623748436433 M181.3290279456616 107.60595763072104 C216.44638034479573 67.07036221738318, 252.8666433352331 27.805985261358842, 276.87072672642074 -0.4062076288398373 M182.0651127011717 107.15319085836143 C218.5122519705075 66.7112951182655, 256.8695840999634 22.50351418596867, 275.31466515681944 -1.0542338530655968 M188.844708421562 107.77746627517249 C204.4954026388167 83.63624225792479, 225.18167676452998 61.94357959199515, 282.6952758466704 0.5437303834320346 M187.56077304977563 106.93313477598335 C222.51338267102608 65.48376552933092, 257.94485028366023 24.08642058838251, 280.86229336241917 0.6462330908240119 M193.5155099832179 108.17900340853808 C218.20815626432562 81.28298394615635, 239.65454772353064 52.187091647274194, 285.1059605950317 1.4664749897975469 M192.9562711284222 107.16024356557605 C217.21118842955048 78.42678283671819, 242.21753381946507 49.96140653492329, 287.0721947388551 -0.4451685115735984 M199.95408779798544 107.52795651099733 C228.8370875344275 69.70942392465521, 263.0839756905321 34.3833606092754, 291.9896375228986 -0.42518550867279714 M198.532597065405 106.74880412138155 C227.23708377465158 74.0541365261605, 256.24036587098533 40.54205116775452, 291.21440454845873 0.3039053048745757 M202.1097984172586 105.97461388362078 C232.62328823980766 72.11555883260218, 262.2310103256109 38.04603960007688, 297.56833679762707 -0.2732386317994724 M204.02853612305555 107.3624104085329 C223.6288714210201 82.40341876171912, 246.3912574269728 55.85878015038382, 297.3902254195236 0.11242893441055912 M210.26717200839335 109.31448800658782 C232.36888882270966 81.85658235413939, 252.89239407371718 58.3807544753274, 302.9007899706112 -1.286771078512004 M209.0141409296673 108.25128682127198 C235.26069230738813 75.8817479086133, 262.8344179077991 45.057445742661, 302.40875511438117 -0.30131615783267307 M215.54744012278366 109.27599218096904 C248.82310177477964 70.23032577807591, 280.9413766384847 28.364527130325683, 306.88090220920685 1.4703546313691334 M214.7672592475717 107.16496482473187 C245.234202726522 72.08933656228058, 277.54418510664294 33.975688822444454, 308.1603587613249 0.11758192238690413 M220.90700792778557 107.73276388694391 C237.9415418659707 83.75765916546223, 258.82533083727174 60.54073166591467, 310.7392800648081 1.3671767989144143 M218.64700620506233 107.18960631315456 C254.83330792792418 66.7208060594146, 288.84053462974384 27.060674118159426, 313.49319662268636 -0.3266578597977343 M225.6389819747931 108.99134142558299 C258.4399993151186 70.01291216843876, 290.94547700186763 31.68268529927913, 317.04170370477095 0.4179579043033641 M223.97029206447067 107.66068025167309 C259.2216283710398 67.87064871698695, 295.8602392710801 25.987467581763198, 318.586696326759 -1.2431861101445634 M228.37164243116217 108.00348727706566 C263.36558212455725 67.15967796001227, 295.0241323085709 32.33694899435585, 322.1906546804894 1.5698612486064576 M230.38529445409017 107.00028603452935 C250.22127594266738 82.52067147429635, 271.2140751323746 58.39148813120594, 322.82808063587436 0.7581536364793919 M235.56997084828686 106.6538647424625 C266.9735826512919 70.45929328027341, 301.58374900043134 30.986037625111123, 327.42378815931943 0.9152743120032198 M235.7479861362524 107.62983012685643 C264.9885314778151 69.90205852525176, 297.55780387447413 35.12595672207652, 329.1858396783259 -1.0958517256838434 M239.87806336453266 106.72707088217581 C265.71952975349495 80.00229242655595, 287.40323735302275 51.470843173838304, 335.31546069265505 -0.02051460443584574 M239.83954821026035 107.56205900311912 C260.5642339486396 85.1409063737861, 283.54860470568997 60.24375164165157, 334.0862587164452 -0.8291082315012659 M243.90095361826505 106.4217652566077 C283.0273646892291 67.62618451486553, 318.8506610055464 25.740586311263655, 340.7752024478523 -2.0669930205312994 M245.523193025417 107.54018788778203 C277.81829346947336 71.85951775314385, 310.57278561372584 33.93215944602535, 339.78689037852564 -0.8788914867309359 M251.98643566087804 108.86479866682876 C274.86928404384986 82.0514435059838, 297.74539658180106 54.302352568523716, 341.5810678893336 2.1433811054557452 M249.90098709405385 108.17702949597825 C283.9054646453464 70.25998077052012, 317.0981970023629 31.075037821628655, 342.2849053399273 3.080958714428533 M256.5674771597276 107.0782460930185 C276.0697617181764 87.72569028768703, 290.7644297720334 68.4449393005341, 343.3462850974835 10.123373994373082 M256.0312642944644 107.54702697194979 C282.372860969756 77.66689522501258, 308.13776607667216 46.8980418135238, 341.65874164197214 8.713233006887435 M262.66374716620777 108.26708333624738 C280.66726526616105 87.13589680232344, 296.0444199221206 65.61214831483773, 343.2374328556199 13.516847305509032 M260.80515363898013 108.0989305308296 C293.0019176133677 71.81879540990529, 322.6111058121912 38.316314558166766, 343.1612817789156 13.62822371399659 M266.88008834767453 106.03151037669491 C287.5673936076561 81.69058971110428, 307.2796653474746 59.86369532914143, 341.88355521513694 19.669401839934153 M267.3200515058946 107.49312081685972 C289.70157798153707 81.64941495672821, 313.6531934102219 54.1620982513959, 342.50396726308935 21.579368550889058 M273.90804475552187 108.65462801543163 C296.42575287179517 81.31298741498125, 315.0734545562052 58.38053293739494, 340.9988698433906 24.821862577827943 M272.7561494075392 107.51428554517315 C299.60630267699054 75.58111885019501, 326.0415589375312 44.96485798385197, 342.8545069727868 26.281735661806835 M279.5243340571058 107.31476123263697 C293.00150130330076 90.03318456794838, 307.40865488782833 74.86981286052819, 343.88429579177483 34.39795532026088 M276.7499062222076 106.90874286001186 C302.6736088755483 78.2512771141769, 328.1905962476588 49.05511544035945, 342.7134049203394 32.324700261882896 M283.0923753038204 108.37313582938147 C297.2531310574193 87.23078088855334, 314.5941941632295 70.8215283762905, 341.76986669865516 39.97133962763522 M283.2705759622312 108.29711797650886 C298.33075161218727 89.9436253833685, 313.43236707612107 72.54496700684004, 341.63137345505027 38.763977575582004 M286.56076116302154 105.58620178584462 C307.3352069994883 86.3056996955439, 328.9077521159168 61.804301308674, 341.59655370239705 43.7797375603532 M288.99368000590346 107.01166653890616 C308.0621079619939 83.18680702924777, 329.27809239658296 59.94820704105184, 343.36615617622226 44.26075157736889 M294.96478568610326 108.39330990309696 C312.6062273506679 88.81662750871749, 327.29395249399255 66.05047595046815, 341.7980883543946 51.23906241948538 M293.1775348655559 108.00895126233678 C306.65739852918597 93.34357230991459, 319.5876210895449 77.13775232049603, 343.03935084618706 50.22080373237662 M299.4249165404216 106.12903516131793 C314.3940806124221 89.02353343249891, 330.75963231065674 68.16896454340917, 342.6433758220037 55.91045168521117 M298.0367244194821 106.70716529104267 C310.0904518289027 94.21040648815797, 321.05718624996285 81.80933799553964, 342.85382259323796 56.386545934847106 M305.6483227773705 108.31085336157805 C316.105708512815 90.48813371444498, 332.50971779587593 77.62513581119178, 342.7380226566184 63.78794365860114 M304.61862768001345 107.89880884015686 C320.4021452145206 89.9007188543723, 335.44157825415334 71.74841114560044, 341.9702316797066 63.7496971499134 M308.927347064306 108.85146448405686 C316.60130978013143 98.81061052645653, 327.285387283367 87.11309952250063, 341.3667499966042 70.26551040005754 M309.1768910254435 106.58801255392137 C320.7974155215399 93.04352791518104, 332.2483526495274 80.89071390160497, 342.22444670489597 70.14331635204027 M314.6410334526221 106.3464693298248 C326.1491643057719 94.23859258986728, 336.88732272188105 83.36041784549091, 342.27521648032655 76.65118646998255 M315.0479559681038 106.90321414746916 C321.7985611801177 98.23507012969226, 329.6491716382113 90.4886049783591, 343.284367518109 75.3809312656924 M321.2535996096748 108.28669287906139 C330.02375800015466 96.24708392547889, 338.4628410186493 86.5242645754867, 341.4518411591796 82.68119766944673 M321.0245313862878 106.93448176504224 C326.0270849665437 101.50244960551935, 330.2576611697306 95.63924134149144, 341.8067481316773 82.39566710600283 M324.8159645868581 107.34586093283717 C329.453371800898 100.34812432214599, 333.70671581898495 98.49945922146394, 341.47021670051913 87.48699397862958 M325.232121292327 107.64619062177364 C327.9501315875259 102.6240213819247, 332.67663391437037 99.53339487082098, 343.1546099238942 86.83227951721358 M330.0409083077748 105.76346976086495 C334.56779533144294 102.1829663182203, 337.5968679898267 96.68158808960882, 343.8455890537479 93.86599497100697 M331.425356719463 107.67275036238132 C335.6213818974604 103.36420885673138, 339.6109149475901 98.67232176166651, 343.20040807996475 93.9352094852774 M335.06963603846856 107.21911251878709 C337.7744183232491 105.35556128632106, 338.54206228598383 104.18502264324826, 343.19060523748465 100.72233841474815 M335.4841671185208 108.04887772126466 C338.3819452032057 105.03625183915423, 340.68002799264616 102.19471966844104, 342.34447537116773 100.1875614309655" stroke="#868e96" stroke-width="0.5" fill="none"></path><path d="M-0.3571125846497268 0.6633463730401248 C86.3681940092414 -2.550519215777107, 169.89048340814045 -0.9540032456361727, 340.81654010240817 -0.818332651595667 M-0.2267986637089625 -0.5318118953288421 C92.77464161240145 2.4365183288376864, 184.7925179292452 2.3624562550182873, 339.66247453116455 -0.4502261531639919 M339.3805414065718 -1.885763369500637 C339.6351030196994 37.76884390935302, 338.5959387149661 73.53554988205434, 341.354112945497 106.38599208742382 M340.29572083428496 0.7403917722404003 C339.0355845668166 33.68810946792365, 339.8730053880065 65.81604490652683, 339.4167479462921 105.8401154689491 M339.9560959898217 106.56748468554682 C230.95277623502184 107.55213127326017, 122.28493916901903 105.91423465041404, -0.7152306471864432 106.78805366319985 M339.4351033709165 105.38110551364153 C236.81802971544448 104.3642726431844, 135.25257474474876 104.17877292713784, 0.11154000882907958 106.50849418849985 M-0.38687316328287125 107.24553517252208 C0.03277032174170014 68.1224144525826, 2.0279230336099863 28.37359945774078, 0.33027442544698715 -1.323209248483181 M0.10553361847996712 106.21329764649273 C-0.9034773337095978 77.4410944581032, -0.5818722473829987 49.19847424700857, 0.23380102589726448 -0.1906789131462574" stroke="#000000" stroke-width="1" fill="none"></path></g><g transform="translate(144.5 217) rotate(0 35.5 13)"><text x="35.5" y="18" font-family="Virgil, Segoe UI Emoji" font-size="20px" fill="#000000" text-anchor="middle" style="white-space: pre;" direction="ltr">Emitter</text></g><g><g transform="translate(351 228) rotate(0 182.7612554918835 -39.60328024183514)"><path d="M-1.062945221364498 0.17121951431035987 C12.634783491988978 -12.332724866767723, 21.469727628926435 -62.910957425336036, 82.33717527538538 -74.8122818723321 C143.2046229218443 -86.71360631932815, 317.1407882705331 -71.70939309746026, 364.14174065738916 -71.23672716766596 M0.5798698080796747 -0.7844941860157997 C14.658384807131565 -13.173641618958985, 23.700215765160202 -62.158133285415055, 84.7011468313355 -73.70130460408517 C145.7020778975108 -85.24447592275527, 319.99484639686534 -70.42957691398449, 366.5854562051315 -70.04352209803648" stroke="#000000" stroke-width="1" fill="none"></path></g><g transform="translate(351 228) rotate(0 182.7612554918835 -39.60328024183514)"><path d="M338.2477578032191 -62.16378828580949 C345.53938533068515 -65.04421230341316, 355.4452661015177 -67.51720330392713, 364.9583123825211 -69.90298332360572 M337.31294359223796 -60.58056655596468 C346.89006062496935 -63.955066229962156, 354.7520824249919 -67.2161415768014, 365.94768833515235 -69.73637386125512" stroke="#000000" stroke-width="1" fill="none"></path></g><g transform="translate(351 228) rotate(0 182.7612554918835 -39.60328024183514)"><path d="M339.1691949455094 -82.66429940086823 C346.20892411130086 -79.14510385396378, 355.8267941160292 -75.21031331324306, 364.9583123825211 -69.90298332360572 M338.23438073452826 -81.08107767102342 C347.36859389823553 -78.35096704910015, 354.95661804587075 -75.516030350772, 365.94768833515235 -69.73637386125512" stroke="#000000" stroke-width="1" fill="none"></path></g></g><g transform="translate(45.81132075471709 106.76415094339615) rotate(0 27.830188679245254 24.056603773584897)"><path d="M32.42958091404793 -0.0991293146582457 C37.85441802333266 0.5051528117084526, 44.91382165231684 4.9471215007643545, 48.69091530805096 9.050288700697605 C52.46800896378508 13.153455900630856, 54.98978749358835 19.440398520452533, 55.09214284845267 24.51987388494126 C55.19449820331698 29.599349249429984, 53.29767625024846 35.6908526901462, 49.30504743723686 39.527140887629955 C45.31241862422526 43.36342908511371, 37.0787755985234 46.62538372647936, 31.136369970383075 47.5376030698438 C25.19396434224275 48.44982241320823, 18.48246966621959 47.51283221605965, 13.650613668394913 45.00045694781657 C8.818757670570236 42.4880816795735, 3.972669630061004 37.42139683758191, 2.1452339834350163 32.463351460385354 C0.3177983368090287 27.505306083188803, 0.6908532358113391 20.32253970423042, 2.6859997886389877 15.25218468463726 C4.681146341466636 10.181829665044102, 8.52073265076525 4.345407356280434, 14.116113300400908 2.041221342826411 C19.711493950036566 -0.26296467062761186, 31.926760410089642 1.3510098498039482, 36.25828368645294 1.4270686039131242 C40.58980696281624 1.5031273580223001, 40.12031530634741 2.218769112435815, 40.10525295858071 2.497573867481467 M17.38212628863915 1.6761572604639916 C22.410163567133853 -0.7688684694985537, 28.731347077543546 -1.8212102289321457, 34.391656160285336 -0.3237054369784822 C40.05196524302713 1.1737993549751813, 47.999194524697174 6.078151513371256, 51.3439807850899 10.661186012185972 C54.68876704548262 15.244220511000687, 55.17947528708898 22.28688445283019, 54.46037372264166 27.174501555909814 C53.74127215819435 32.062118658989434, 51.357173631400336 36.42833811006933, 47.02937139840603 39.986888630663714 C42.70156916541172 43.545439151258094, 34.21516077953208 47.84738216018863, 28.493560324675798 48.525804679476096 C22.77195986981952 49.20422719876356, 17.088585151957588 47.12797065226481, 12.699768669268355 44.057423746388494 C8.310952186579122 40.98687684051218, 3.592918737482056 35.21299431919072, 2.1606614285403936 30.102523244218208 C0.728404119598731 24.992052169245696, 1.9326786126976394 18.105274077934553, 4.106224815618379 13.394597296553414 C6.279771018539119 8.683920515172275, 13.007348314677946 3.4851142513154914, 15.201938646064832 1.8384625559313719 C17.396528977451716 0.19181086054725216, 16.665273440104848 3.0488416264434917, 17.273766803939694 3.5146871242486952" stroke="#000000" stroke-width="1" fill="none"></path></g><g transform="translate(70.69811320754724 111.21698113207543) rotate(0 3 23)"><text x="3" y="32" font-family="Virgil, Segoe UI Emoji" font-size="36px" fill="#000000" text-anchor="middle" style="white-space: pre;" direction="ltr">1</text></g><g transform="translate(116.56603773584857 120.0094339622641) rotate(0 88 13)"><text x="0" y="18" font-family="Virgil, Segoe UI Emoji" font-size="20px" fill="#000000" text-anchor="start" style="white-space: pre;" direction="ltr">Something happens</text></g><g transform="translate(411.1132075471702 191.9150943396226) rotate(0 27.830188679245282 24.056603773584897)"><path d="M35.986611687432514 0.9331365205117379 C41.48517647445869 1.8445984707020169, 47.82380398707914 5.936851536607768, 51.13363394163091 10.265628506868676 C54.443463896182685 14.594405477129584, 56.516094162604226 21.505208876238353, 55.84559141474317 26.90579834207719 C55.17508866688211 32.30638780791603, 51.44327671647991 38.98768353071581, 47.11061745446458 42.66916530190171 C42.777958192449255 46.3506470730876, 35.9757261125352 48.97959018645711, 29.849635842651228 48.99468896919253 C23.723545572767254 49.00978775192795, 15.361565844764087 46.21346454285992, 10.354075835160732 42.75975799831425 C5.3465858255573755 39.30605145376858, 0.9177312355014251 33.26552528430213, -0.19530421496890682 28.272449701918525 C-1.3083396654392387 23.279374119534925, 0.8294399659908152 17.154198876864218, 3.6758631323387405 12.801304504012641 C6.522286298686666 8.448410131161065, 10.162692578342611 3.3821501264920117, 16.883234783118645 2.1550834648090635 C23.60377698789468 0.9280168031261156, 38.236519370694225 4.046191990651344, 43.99911636099495 5.438904533914954 C49.76171335129567 6.831617077178564, 51.5230222560955 10.394456871450718, 51.458816724922954 10.51135872439072 M31.18518606482587 1.0097074810031081 C36.94367436068118 1.1988843627390982, 44.35460811715891 2.541531624577072, 48.28221535113265 6.004904356674135 C52.20982258510639 9.468277088771199, 54.489799824994996 16.25862726529115, 54.750829468668286 21.78994387358549 C55.011859112341575 27.32126048187983, 53.22920554413445 34.94247908303351, 49.84839321317237 39.19280400644017 C46.46758088221029 43.44312892984683, 39.94191821655185 46.33070957958414, 34.465955482895815 47.29189341402544 C28.989992749239782 48.25307724846674, 22.429914911547925 47.34240016341758, 16.992616811236175 44.959907013087964 C11.555318710924425 42.57741386275835, 4.467940935389953 37.3429254876665, 1.8421668810253138 32.99693451204774 C-0.7836071733393251 28.650943536428976, -0.4881945776489376 23.66655942961478, 1.237972485048342 18.883961159375396 C2.9641395477456216 14.101362889136015, 7.553980152472537 7.681564010407074, 12.199169257208991 4.30134489061145 C16.844358361945446 0.9211257708158254, 26.187896124853133 -0.5919109476175907, 29.10910711346707 -1.3973535593983506 C32.030318102081004 -2.2027961711791106, 29.7219772053055 -1.408064774596589, 29.726435188892616 -0.5313107800731096" stroke="#000000" stroke-width="1" fill="none"></path></g><g transform="translate(425.50000000000034 196.3679245283019) rotate(0 13.5 23)"><text x="13.5" y="32" font-family="Virgil, Segoe UI Emoji" font-size="36px" fill="#000000" text-anchor="middle" style="white-space: pre;" direction="ltr">2</text></g><g transform="translate(481.8679245283016 205.16037735849062) rotate(0 82.99999999999994 39.00000000000003)"><text x="0" y="18" font-family="Virgil, Segoe UI Emoji" font-size="20px" fill="#000000" text-anchor="start" style="white-space: pre;" direction="ltr">An event is fired</text><text x="0" y="44" font-family="Virgil, Segoe UI Emoji" font-size="20px" fill="#000000" text-anchor="start" style="white-space: pre;" direction="ltr">using an</text><text x="0" y="70" font-family="Virgil, Segoe UI Emoji" font-size="20px" fill="#000000" text-anchor="start" style="white-space: pre;" direction="ltr">ReplaySubject</text></g><g transform="translate(712.0566037735855 469.95283018867906) rotate(0 27.830188679245225 24.056603773584868)"><path d="M19.16771952942165 0.541084253478644 C24.62048951645679 -1.2840690563196446, 33.41508200849687 -0.02923544301204184, 39.09475817311449 1.9451814836494137 C44.77443433773212 3.9195984103108694, 50.700812674795785 7.823941014089645, 53.245776517127396 12.387585813447377 C55.79074035945901 16.95123061280511, 55.74452157823166 24.36463410588624, 54.36454122710414 29.327050279795806 C52.98456087597662 34.28946645370537, 49.477364074545726 38.97940666613309, 44.96589441036225 42.162082856904775 C40.45442474617878 45.34475904767646, 33.37312714025771 48.540938857363955, 27.295723242003287 48.42310742442591 C21.21831934374887 48.30527599148786, 13.043309139134585 44.832285369642356, 8.501471020835751 41.455094259276514 C3.959632902536918 38.07790314891067, 0.5933165914594417 33.023160105313494, 0.04469453221028985 28.159960762230842 C-0.503927527038862 23.296761419148186, 1.741121756758572 16.75921835213283, 5.20973866534084 12.275898200780588 C8.678355573923108 7.792578049428346, 17.767988697250722 3.1096653836573003, 20.856395983703898 1.2600398541173838 C23.944803270157074 -0.5895856754225328, 23.641425738236553 0.9152718610904831, 23.740182384059892 1.178145023541088 M34.38987830576795 0.5697387652859618 C39.85986660119166 1.3579691464050643, 44.67404857385067 6.1383219606095105, 47.973149062637034 10.209460817844866 C51.2722495514234 14.280599675080222, 54.136845230576995 19.915965056132972, 54.18448123848614 24.99657190869809 C54.23211724639529 30.07717876126321, 51.89989958715816 37.09407671793161, 48.258965110091935 40.69310193323557 C44.61803063302571 44.29212714853953, 37.89220105542419 45.71559837134174, 32.338874376088775 46.59072320052187 C26.785547696753362 47.465848029702, 19.953817665204276 48.24293876343941, 14.93900503407945 45.943850908316364 C9.924192402954624 43.644763053193316, 4.5764792108296515 38.05761273413272, 2.249998589339814 32.796196069783576 C-0.07648203215002392 27.53477940543444, -0.9202010553572029 19.113395020834137, 0.9801213051404218 14.375350922221537 C2.8804436656380465 9.637306823608938, 8.2170332959533 6.7005711740020395, 13.651932752325562 4.367931478107977 C19.086832208697825 2.0352917822139136, 30.51516099220189 0.7174133502223068, 33.58951804337399 0.3795127468571593 C36.6638750945461 0.04161214349201181, 32.41227806809524 2.062882155877072, 32.098075059358194 2.340527857917092" stroke="#000000" stroke-width="1" fill="none"></path></g><g transform="translate(726.9433962264159 474.40566037735823) rotate(0 13 23)"><text x="13" y="32" font-family="Virgil, Segoe UI Emoji" font-size="36px" fill="#000000" text-anchor="middle" style="white-space: pre;" direction="ltr">3</text></g><g transform="translate(782.8113207547169 483.19811320754695) rotate(0 162.5 39)"><text x="0" y="18" font-family="Virgil, Segoe UI Emoji" font-size="20px" fill="#000000" text-anchor="start" style="white-space: pre;" direction="ltr">When a component subscribes to</text><text x="0" y="44" font-family="Virgil, Segoe UI Emoji" font-size="20px" fill="#000000" text-anchor="start" style="white-space: pre;" direction="ltr">the replay subject stream, the n</text><text x="0" y="70" font-family="Virgil, Segoe UI Emoji" font-size="20px" fill="#000000" text-anchor="start" style="white-space: pre;" direction="ltr">latest events are replayed</text></g><g><g transform="translate(351 229) rotate(0 183.21730537563565 52.29803725932834)"><path d="M-0.16323275417089467 -0.2082765832543373 C11.324851387242477 15.767980248232682, 8.75420368661483 80.39948991785447, 69.88104972988367 96.95151121467352 C131.0078957731525 113.50353251149257, 317.2111580863595 98.91198665946722, 366.59784350544214 99.10385119765996" stroke="#000000" stroke-width="1.5" fill="none" stroke-dasharray="12 8"></path></g><g transform="translate(351 229) rotate(0 183.21730537563565 52.29803725932834)"><path d="M338.432723035364 110.13766533224211 C347.48352823626055 105.44228851029968, 361.62431661416696 100.51994656411071, 366.76900757849216 97.36482139527797" stroke="#000000" stroke-width="1.5" fill="none"></path></g><g transform="translate(351 229) rotate(0 183.21730537563565 52.29803725932834)"><path d="M337.721065093235 89.62880028906517 C347.22882558528727 92.71501889748117, 361.6396018566728 95.57330433260132, 366.76900757849216 97.36482139527797" stroke="#000000" stroke-width="1.5" fill="none"></path></g></g></svg>